<svg width="480" height="482" viewBox="0 0 480 482" fill="none" xmlns="http://www.w3.org/2000/svg">
<g id="logo-2023">
<g id="Logo_2023">
<g id="Logo">
<g id="Vector_41_00000031165064379149768350000012945370366727990708_">
<rect id="White" x="119" y="90" width="263" height="333" fill="white"/>
<path id="Vector" fill-rule="evenodd" clip-rule="evenodd" d="M241.1 1C107.9 0.300001 0.299986 107.3 -1.39002e-05 240.3C-0.300014 374.1 107.1 480.2 237.9 481C374.2 481.8 479.7 372.6 480 241.3C479.9 108.8 373.5 1.6 241.1 1ZM390.6 422.4C390.6 422.8 390.5 423.3 390.2 423.5L383.6 428.5C382.9 429.1 382.5 429.7 381.4 429.7C354.8 449.6 325.1 463.4 292.7 470.9C277.2 474.5 261.4 476.6 245.6 476.8C232.2 476.9 218.8 476.2 205.5 474.3C180.8 470.7 157.4 463.3 135 452.5C123 446.6 111.7 439.7 100.8 431.9C100.2 431.5 99.7 431 99.6 430.9C99.6 429.5 99.8 428.3 99.6 427.2C99.4 426.1 98.7 425.1 98.3 423.9C101.2 426.7 103.7 429.2 106.4 431.7C107.2 432.4 108.4 432.9 109.3 432.7C109.9 432.6 110.4 431.1 110.4 430.2C110.8 424.1 111.1 417.9 111.3 412C111.6 412.7 112.2 413.9 112.6 415C113 416.3 113.5 417.6 113.9 418.9C114.3 420.2 114.7 421.6 115 423C115.3 424.4 116.3 425.2 117.8 425.2C119.3 425.3 119.8 424.1 120 423C121.4 416.1 121.7 409.1 121.1 402C120.9 399.7 120.7 397.3 120.8 394.9C122.1 397.6 123.1 400.5 124.8 403C128.4 408.6 130.2 415.3 135.8 419.6C143.6 425.7 154.7 426.7 163.5 421.6C172.1 416.7 176.9 406.6 175.4 396.9C175.2 395.2 175.4 393.6 175.8 391.8C176.7 393.9 177.5 396.1 178.6 398.2C180.6 401.9 182.6 405.6 184.7 409.1C185.4 410.2 186.4 411 187.1 411.9C187.7 412.6 188.3 413.2 188.4 413.9C188.7 415.8 189.7 416.1 191.5 416C200.9 415.1 210.3 414 219.7 413.4C230 412.7 240.3 412.5 250.5 412.1C269.2 411.2 287.8 412.3 306.4 413.4C309.2 413.6 311.8 413.6 314.5 413.7C316.2 413.8 316.8 412.8 317.3 411.5C319.9 404.5 321.6 397.3 322.1 389.9C322.1 389.5 322.2 389 322.3 388.6C324.1 394.3 324.8 400.3 324.9 406.2C324.9 408.2 324.9 410.3 324.8 412.3C324.7 413.9 324.8 415.3 326.6 415.8C328.6 416.2 328.9 414.6 329.5 413.2C331.2 409.5 332.9 405.7 334.6 401.9C334.8 402 335.2 402 335.4 402.1C334.7 405.9 334.1 409.6 333.3 413.2C333.1 414.6 332.7 416 333.7 417.2C334.1 417.8 334.8 418.6 335.2 418.5C335.9 418.4 336.9 417.8 337.2 417.2C338.9 413.4 340.4 409.5 341.7 405.6C342.6 402.7 343 399.8 344 396.8C344.3 398.9 344.8 401 345 403.3C345.3 406.4 345.4 409.5 345.4 412.7C345.4 414.4 345 415.9 344.5 417.5C344.1 418.9 344.2 420.1 345.6 420.5C347 420.9 347.6 419.9 348 418.7C351.1 409.9 355.7 401.9 361.8 394.7C362.1 394.3 362.5 393.9 363.1 393.3C362.4 397.2 361.6 400.7 361.2 404.2C360.8 408.8 360.8 413.3 360.6 418C360.6 418.8 360.7 419.6 361 420.2C361.9 422.3 363.5 422.7 365 421C367.4 418 369.6 414.9 371.9 411.9C372.5 411.1 372.9 410.2 373.7 409.1C374.4 411.1 374.7 412.7 375.4 414.2C376.9 418.2 378.7 422.2 380.4 426.2C381.1 427.5 382.1 428.3 383.6 428.2C383.9 427.3 384.4 426.3 384.8 425.2C386.6 421.1 388.3 417 390.1 412.8C390.3 412.9 390.4 412.9 390.7 413V422.4H390.6ZM152.1 389.5C151.8 390.3 151 390.9 150.2 391.3C148.8 391.9 147.2 392.1 145.8 392.7C143.6 393.8 142.2 392.5 140.7 391.4C140.4 391.2 140.3 390.6 140.3 390.5C140.9 387.8 141.2 385.5 141.5 383.1C141.9 381.2 146 379.8 147.6 381.1C148.7 382 149.7 383 150.8 384C153.5 386.4 153.5 386.4 152.1 389.5ZM151.6 416C150.1 417.2 148.7 418.7 147.3 420C146.9 420.4 146.3 420.8 146.1 420.9C144 421 142.1 419.6 141.7 417.9C141.1 415.8 140.7 413.7 140.3 411.5C140 409.5 142.6 406.7 144.6 407.3C146.6 407.9 148.7 408.4 150.4 409.4C151.4 410 151.7 411.6 152.4 412.7C153.1 414.1 152.8 415 151.6 416ZM141.2 396.2C142 397.1 141.9 398.8 142.2 400.1C142.4 402.9 141.3 404.8 138.9 405.9C138.2 406.2 137.1 406.2 136.5 405.9C134.7 405 133.1 403.7 131.4 402.6C130.2 401.8 130.1 398.9 131.4 398.1C132.6 397.2 134 396.4 135.4 395.6C138.3 393.8 138.8 393.7 141.2 396.2ZM159 404.2C160.1 402.8 161.2 401.7 163.1 402.4C165.4 401.6 166.3 403 166.7 405C167.1 406.9 167.9 408.7 168.6 410.6C169.4 412.7 168.2 414.5 166 414.3C163.4 414.1 160.7 413.6 158.1 413.4C156.9 413.3 156.2 412.7 155.9 411.5C155.6 410.3 154.6 409.2 155.9 407.9C157 406.8 158 405.5 159 404.2ZM155.9 390.2C156.1 388.2 157.2 387.4 159.3 387.5C160.6 387.6 162.1 387.3 163.5 387.2C165.2 387.5 167.2 386.4 168.3 388.6C168.7 389.3 168.9 390.3 168.6 390.9C167.9 392.7 167.2 394.5 166.2 396.2C165.6 397.1 164.9 398.4 164.1 398.5C162.4 398.8 160.6 398.9 159.5 396.9C158.6 395.2 157.2 393.8 156.2 392.2C155.9 391.7 155.8 390.8 155.9 390.2ZM234.2 309C235.9 298.9 237.5 289.1 239.2 279.1C242.6 280.1 245.7 281 249 281.9V309H234.2ZM248.9 312.9V316.8C247.7 315.5 246.6 314.2 245.3 312.9H248.9ZM228.6 261.1C227.7 257.5 227.8 253.5 228.3 249.8C228.9 245.8 230.3 242 231.1 238.1C232.1 233.1 233 228.2 234 223.3C235.1 218 236.3 212.6 237.5 207.1C245.4 210 253 209.8 260.7 206.9C262.2 211.4 263.7 215.8 265.1 220.2C268.1 229.2 270.7 238.4 274 247.3C277.5 256.9 273.1 270 262.2 275.5C248.8 282.3 232.2 275.3 228.6 261.1ZM190.2 229.6C190.1 229.5 189.9 229.5 189.8 229.5C188.9 226.7 187.8 223.9 186.9 221.1C186.8 220.7 187.1 219.8 187.5 219.7C190.3 218.3 193.2 217.1 196.2 216C192.9 220 190.7 224.3 190.2 229.6ZM207.9 214.4C207.6 216.5 207.5 218.5 207.1 220.6C207.1 221 207 221.5 206.7 221.7C203.3 224.8 199.4 226.8 194.7 227C195.2 221.1 202.6 214.2 207.9 214.4ZM207.4 225.9C208 227.3 208.4 228.6 208.7 229.9C208.8 230.5 208.6 231.2 208.1 231.6C204.7 234.7 200.7 236.2 196.1 236.4C195 236.4 194.4 236 194.3 235C194.1 233.7 194 232.4 193.7 230.9C199 230.6 203.4 228.8 207.4 225.9ZM207 236.9C207.8 236.6 208.7 236.1 209.2 235.5C211.5 232.8 214 233.9 216.9 235.2C213.7 240.9 209.4 244.7 203.2 245.7C202.6 245.8 202 245.8 201.7 245.5C199.9 243.9 198.2 242.3 196.6 240.8C200.3 239.4 203.7 238.3 207 236.9ZM306.3 227.3C307.1 231 306.4 234.2 304.9 237.7C303.6 235.9 302.4 234.5 301.2 232.9C302.9 231 304.4 229.4 306.3 227.3ZM305.6 217.4C305.7 217.3 305.8 217.1 305.9 217C308.4 218.2 310.9 219.5 313.3 220.9C313.5 221 313.9 221.7 313.7 222C312.7 224.9 311.7 227.8 310.4 230.7C310 225.8 308.6 221.3 305.6 217.4ZM300.7 251.3C299.8 255.1 291.9 257.8 288.4 255.5C290.1 251.8 297.1 249.4 300.7 251.3ZM288.1 247.1V239.2C289.1 238.9 290.2 238.4 291.6 238C292.7 240.8 293.8 243.5 295.1 246.5C292.6 246.6 290.5 246.9 288.1 247.1ZM298.3 244.8C297.1 241.8 296 239.2 294.9 236.4C295.9 236 296.9 235.4 297.9 234.8C299.6 236.8 301.1 238.7 302.9 240.9C301.3 242.3 300 243.5 298.3 244.8ZM304 223.1C303.2 225.7 301.5 227.6 299.3 229.5C297 224.7 295.7 220 295.9 214.6C299.5 215.9 302.3 218.3 304.2 221.4C304.3 221.8 304.1 222.6 304 223.1ZM296.3 231.7C295.4 232.1 294.6 232.6 293.7 233.1C291.1 226.6 288.5 220.4 285.8 213.8C288 213.7 290 213.5 292.1 213.4C292 220.1 293.5 226 296.3 231.7ZM290 233.8C290 234 290 234.2 290.1 234.7C289.1 235 288.3 235.4 287.2 235.7C285.4 229.3 282.7 223.8 278.1 218.5C279.4 217.4 280.7 216.4 282.3 215.2C284.9 221.7 287.4 227.7 290 233.8ZM284.5 240.1V246C281.4 245 279.1 243.2 276.9 240.7C279.6 240.4 281.8 240.3 284.5 240.1ZM275 237C272.4 232.7 272.7 225.5 276 221.4C279.7 225.7 282.2 230.6 283.7 236.4C280.6 236.7 277.8 236.9 275 237ZM270.3 224.3C268.3 218.4 266.7 213.3 264.9 207.7C271.7 207.8 278.1 208.8 285 210.4C277.7 212.6 272.9 217.1 270.3 224.3ZM218.4 215.3C218 218.1 217.2 220.6 217 223.2C216.8 225.8 217 228.3 217 231.1C217.1 231.2 216.8 231 216.2 231.1C212.7 231 211.2 228.5 211.1 225.5C211 222.2 211.3 218.7 211.4 215.4C211.5 214.1 212.5 213.6 213.6 214C215.2 214.3 216.9 214.9 218.4 215.3ZM216.3 210.5V210C221.9 209.3 227.4 208.7 233.5 207.9C232.4 212.9 231.5 217.4 230.5 222.3C227.2 216.2 222.8 212.1 216.3 210.5ZM202 252.4C206.1 251.6 209.8 252.3 213 255C213.8 255.7 214.4 256.6 212.8 257.2C209.8 258.5 203.1 256.9 201.2 254.2C201.1 254 201 253.6 200.8 253.2C201.2 253 201.6 252.5 202 252.4ZM208.2 248.1C213.7 245.5 217.3 241.9 220.2 236.6C221.6 238.4 222.8 239.7 223.8 241.3C224 241.7 223.7 243.1 223.2 243.5C219.9 247.3 214.3 249 208.2 248.1ZM220.5 225.6C220.5 223 221.2 220.5 221.5 217.5C228.2 222 229.8 228.6 226.9 238.2C222.4 235.1 220.4 230.8 220.5 225.6ZM219.2 175.1C219.5 159.1 232.9 146.1 248.8 146.3C263.2 146 278.2 157.4 278.4 175.8C278.6 192.2 264.9 205.3 248.3 205.3C232.5 205.3 218.9 192 219.2 175.1ZM252.8 309V282C255.8 281.3 258.7 280.7 261.9 279.9C263.6 289.5 265.2 299.2 266.9 309H252.8ZM256 312.9C255 314 254 315 252.8 316.4V312.9H256ZM256.4 338.2H252.8V334.3C254.1 335.7 255.2 336.9 256.4 338.2ZM252.8 380.1C255.7 381.3 257.2 383.4 258.5 386C256.6 387.6 254.9 389.1 252.8 390.8V380.1ZM253.7 403.1H281.7C283.9 403.1 285.6 402.8 286.4 400.1C286.8 398.8 288.7 397.4 290.3 396.9C297 394.3 303.8 394.4 310.6 397.2C315.2 399.1 316.3 406.2 312.7 409.7C312.1 410.1 311.3 410.1 310.6 410.1C302.9 409.7 295.3 409 287.6 408.8C276.8 408.6 266.1 408.6 255.3 408.6H253.6C253.5 406.7 253.5 405.1 253.7 403.1ZM295.6 391.7C292.4 392 289.3 393.4 286.4 394.6C285.2 395 284.1 396.3 283.4 397.5C282.6 399.1 281.6 399.4 280.1 399.4H253.8C253.5 395.8 255.1 393.6 257.4 391.4C263 386.8 269.7 384.8 276.8 384C286.3 383 295.3 384.2 303.8 388.7C305.6 389.6 307.2 390.8 308.6 391.8C304.2 391.7 299.9 391.3 295.6 391.7ZM263.6 383.7C263.2 383.8 262.1 383.5 261.7 383C259.6 379.7 259.8 374.6 262.1 371.4C263.5 369.3 265.7 368.6 267.9 368.5C270.7 368.3 273.3 368.6 276 368.8C276.4 368.9 277 369.4 277.3 369.7C279.9 372.6 280.8 376.2 280.7 380.2C274.8 380.4 269.2 381.5 263.6 383.7ZM276 364.8H274C270.8 365 267.5 364.9 264.3 365.5C262.9 365.8 261.4 367.2 260.3 368.3C257.8 370.9 256.8 374.1 256.7 378C255.3 377.6 254.1 377 252.7 376.6V342.3H270.6C271.7 342.3 272.4 342.5 272.6 343.7L275.9 363.8C276.1 364 276 364.3 276 364.8ZM272.9 338.5C271.6 338.6 270.3 338.4 269 338.4C270.7 335.9 272.3 333.6 274 331.3C274.3 332.7 274.8 334.3 275 336C275.1 337.3 274.3 338.3 272.9 338.5ZM268.2 333.6C265.2 337.2 260.6 337.4 257.3 334C253.1 329.8 252.8 322 256.7 317.4C259.5 314.3 264 313.9 267 316.8C269.6 319.3 270.7 322.4 270.7 327.3C270.8 328.8 270.1 331.3 268.2 333.6ZM265.3 279.1C265.3 278.5 265.9 277.5 266.4 277.2C274.9 271.3 279.1 263 278.7 252.8C278.7 250.8 278.1 248.8 277.9 247.1C280.8 248.3 283.8 249.4 287 250.8C286.8 251 286.4 251.5 286.1 251.9C284.9 253.3 284 254.9 284.8 256.9C285.6 258.8 287.2 259.7 289.1 259.9C294.2 260.6 298.7 259 302.4 255.6C303.1 255 303.7 254.4 303.8 253.6C304.7 249.1 308 245.7 309.6 241.6C312.2 235.1 314.9 228.8 317.4 222.3C318.3 220 318 219.4 315.7 218.1C309.2 214.3 302.4 211.5 295.2 209.4C286.3 206.7 277.3 204.9 268 204.2C267.7 204.2 267.3 204.1 266.9 204.1C287.3 189.7 284.5 164.2 271.9 152.2C258.5 139.2 237.6 139.5 224.5 152.6C212.2 165.1 210.2 191 230.9 204.5C226.7 205.1 222.6 205.5 218.6 206.2C207.3 208.1 196.5 211.3 186.1 216.2C182 218.1 182 218.1 183.3 222.4C186.4 232.4 190.6 242 196 251C196.3 251.6 196.8 252.2 196.8 252.8C196.7 255.1 198 256.7 199.7 257.9C203.6 260.8 208.1 262 212.8 260.9C217.5 259.9 218.6 256.3 215.6 252.7C215.5 252.4 215.3 252.1 215.2 252C218.5 250.4 221.6 249 224.7 247.5C224.5 249.7 224.3 252.3 224.1 254.9C223.8 263.1 227.4 269.7 233.3 275C235.1 276.6 235.7 277.8 235.2 280.1C234.3 283.7 234 287.3 233.3 291.1C232.7 290.8 232.2 290.7 231.8 290.4C215 281.6 200.8 269.3 188.4 255C172.1 236.2 160.1 214.9 152.3 191.1C148.9 180.7 146.6 170.1 145.6 159.3C144.2 143.6 145.5 128.2 152.6 113.8C159.6 99.6 171.1 90.8 186.9 88.6C200.2 86.7 212.8 89.9 224.9 95.3C232.9 98.9 240.3 103.7 247.6 108.6C248.7 109.3 249.7 110.6 250.7 110.6C251.6 110.6 252.5 109 253.5 108.4C266.8 99.3 280.7 91.5 297 89C309.7 87.1 321.8 88.6 332.7 95.9C341.6 101.9 347.5 110.5 351 120.5C355.2 132.2 356.3 144.2 355.3 156.5C352.3 193.5 337 225 313.9 253.3C303.3 266.1 291 277.3 276.7 286.1C273.7 287.9 270.6 289.6 267.5 291.3C266.6 287.1 265.9 283.1 265.3 279.1ZM233.7 317.1C236.9 313.8 241.7 314 244.6 317.5C248.2 322 248.1 329.3 244.3 333.5C240.8 337.5 235.2 337.1 232.4 332.5C231.2 330.5 230.7 328.2 230 325.9C230.5 322.5 231.5 319.5 233.7 317.1ZM248.8 333.8V338.1H244.8C246.3 336.6 247.4 335.3 248.8 333.8ZM229.7 315.9C229.6 311.9 230.5 311.9 232.6 312.9C231.6 313.9 230.5 314.9 229.7 315.9ZM232.3 338.3C230.8 338.3 229.3 338.4 227.9 338.2C227.5 338.1 226.8 337.1 226.8 336.5C226.8 334.9 227.2 333.3 227.5 331.7C229.1 333.9 230.5 336 232.3 338.3ZM228.3 344C228.5 342.8 229 342 230.3 342H249V376.3C247.6 376.7 246.1 377.3 244.7 377.9C244.7 374.4 243.5 371.4 241.5 368.7C239.2 365.6 236 365 232.7 364.8C230.8 364.7 229.1 364.8 227.2 364.8H224.8C225.5 360.9 226 357.3 226.8 353.8C227.2 350.5 227.9 347.3 228.3 344ZM248.9 380V390.6C246.8 388.9 244.9 387.5 242.8 385.9C244.1 383.3 245.8 381.3 248.9 380ZM226.5 368.7C228.7 368.6 231.1 368.3 233.3 368.6C239.5 369.6 242.5 375.4 240.2 381.3C239.9 382.2 239.3 383.1 239.1 383.5C232.7 382.1 226.8 380.6 220.4 379.2C220.2 375.9 221.3 372.5 223.9 369.7C224.5 369 225.6 368.8 226.5 368.7ZM238.5 388.4C241.1 389.6 243.3 391.7 245.8 393.5C247.7 394.8 248.2 397 248.2 399.4C247.5 399.4 247 399.5 246.4 399.5H220.5C219.9 399.5 218.8 399.3 218.6 398.8C216.3 394.5 212.2 393.1 207.9 392.1C202.6 390.9 197.3 391.2 192 392.8C191.8 392.8 191.3 392.8 190.7 392.9C194 389.4 197.7 387.3 201.7 386.2C214.3 382.1 226.6 382.7 238.5 388.4ZM203.1 395.2C206.3 395.5 209.5 396.5 212.5 397.7C213.8 398.1 214.8 399.7 215.4 401C216.2 403 217.7 403.1 219.4 403.1H249C249.1 405 249.1 406.7 249.1 408.4C246.6 408.4 244.1 408.3 241.7 408.4C232.6 408.8 223.4 409.2 214.4 409.7C207.4 410.1 200.4 411 193.4 411.7C192.8 411.7 192.1 411.6 191.6 411.3C189.1 409 187.4 406.1 187 402.5C186.8 400.5 187.4 398.9 189.3 397.9C193.7 395.5 198.4 394.7 203.1 395.2ZM444.3 360.7C433.7 378.9 420.9 395.2 405.8 410C401.3 412 399.5 417.4 394.9 419.7C394.9 419.1 394.8 418.6 394.8 418C395.2 413.5 395.7 409.1 396.2 404.6C396.4 403.3 396.8 401.8 395.1 401.4C393.4 400.8 393 402.3 392.7 403.6C392.6 404.2 392.3 404.7 391.9 405.3C389 410.6 386.1 415.9 383.2 421.2C383.2 421.4 383 421.5 382.8 421.9C380.5 417 378.8 412 377.7 406.9C377.5 406 377.4 405.1 377 404.3C376.7 403.6 376 402.7 375.3 402.6C374.6 402.6 373.6 403.3 373.2 403.9C372.1 405.6 371.3 407.5 370.2 409.2C368.7 411.5 367 413.9 365.5 416.2C365.4 416.2 365.2 416.1 365.1 416.1C365.1 414 365 411.9 365.1 409.7C365.5 402.5 367 395.4 369.5 388.6C369.8 387.8 369.3 386.7 369.1 385.7C368.1 386 366.9 385.9 366.2 386.5C360 391.7 355.3 398.2 351.2 405.2C350.9 405.9 350.5 406.4 349.9 407.5C349.5 404 349.2 401.3 348.7 398.5C348 395.2 347.2 391.9 346.4 388.6C346.2 387.4 345.6 385.9 344.1 386.3C342.6 386.5 341.6 387.6 341.5 389.4C341.3 392.3 340.9 395.2 340.6 398.1C340.5 398.8 340.3 399.4 340 400.2C340 398.6 340.2 397.2 340 395.7C339.8 394.8 339.3 393.5 338.7 393.2C338 393 336.7 393.6 336.3 394.3C334 397.8 331.9 401.3 329.6 405.1C329.3 402.2 328.9 399.4 328.6 396.7C327.8 390.8 326.5 385.1 323.6 379.8C322.5 377.9 321.2 376.2 319.7 374.7C319.4 374.4 317.8 374.1 317.6 374.5C317 375.2 316.7 376.3 317 377C320 383.7 319.1 390.5 318 397.7C310.6 384.8 298.4 381.5 285.1 380.1C285.1 375.5 283.4 371.5 281.1 367.5C279.8 365.2 279.8 361.9 279.3 359.1C278.3 353.6 277.4 348.1 276.5 342.6C276.4 341.9 276.7 340.9 277.2 340.4C278.9 338.6 279.1 336.7 278.6 334.4C277.3 327.5 276.1 320.5 275 313.6C274.7 311.8 273.6 310.8 272.1 309.9C271.3 309.5 270.6 308.5 270.4 307.7C269.7 304.2 269.2 300.7 268.5 297.1C268.3 295.9 268.6 295.3 269.7 294.8C290.6 284.1 307.5 268.6 321.8 250.1C335.5 232.4 345.9 213 352.6 191.6C355.9 181.1 358.2 170.4 359.1 159.5C360.2 146.9 359.7 134.5 355.8 122.5C351.3 108.2 343.4 96.8 329.8 89.8C320.2 85 310 83.8 299.4 85C281.6 87.1 266.2 94.8 252 105.3C250.6 106.3 249.9 105.9 248.8 105.1C236.7 96.2 223.7 89.5 208.9 86.3C195.6 83.4 182.6 83.8 170.4 90.3C157.7 97 150 108 145.6 121.4C141.6 133.2 140.6 145.5 141.7 157.8C144.8 194.1 159.6 225.4 182 253.5C194.8 269.5 209.9 283 228 293C229.4 293.8 231.4 294.2 232.1 295.5C232.8 296.6 231.9 298.6 231.7 300.2C231.4 302.2 231 304.2 230.7 306.2C230.5 307.8 230 309.1 228.2 309.5C226.5 309.9 226 311.5 225.8 313.2C225.1 318.3 224.5 323.6 223.8 328.7C223.5 330.9 222.7 333.3 222.7 335.5C222.7 337.1 223.6 338.7 224 340.4C224.2 341.2 224.7 342 224.6 342.6C223.4 350.4 222 358.3 220.6 366.1C220.5 366.7 220.4 367.3 220 368C219 369.8 217.9 371.6 217.2 373.5C216.5 375.3 216.4 377.3 216.1 379.2C212.4 379.8 208.4 380.1 205.4 380.9C198.8 382.6 192.5 385 188.1 390.6C186.2 393.1 184.9 395.9 183.4 398.6C183.4 398.6 183.1 398.3 183 397.9C181.6 394 179.9 390.1 178.6 386.1C178 384.7 178.5 382.9 178.2 381.3C178 380.4 177.4 379.5 177 378.6C176.2 379.2 175.1 379.6 174.8 380.4C173.9 382.6 173.4 385.1 172.7 387.5C166.2 378.3 157.2 374.1 146.2 376.5C135.2 378.8 129.1 386.6 127 398C126.1 396.4 125.6 395.1 124.8 394C122.9 391.1 120.9 388.2 119.1 385.3C118.3 384.1 117.2 383 115.6 383.9C114.1 384.8 114.7 386.1 115.2 387.4C118.2 396.3 118.7 405.5 118.2 414.8C118.1 415.4 118 415.9 117.8 416.9C117.2 415.2 116.7 414 116.3 412.9C115.7 411.7 115.3 410.3 114.6 409.2C113.1 406.6 111.4 404.2 110 401.6C109.4 400.7 109.3 399.6 109 398.6C108.6 397.4 108 396.3 106.6 396.7C105.3 397.1 105.3 398.3 105.6 399.6C107.8 407.7 108.5 416.1 108.1 424.5C108.1 425.5 107.9 426.5 107.8 427.8C103.5 423.7 100 419.4 96.9 414.8C96.7 414.5 96.6 413.9 96.2 413.8C95.5 413.5 94.4 412.8 94 413.1C93.4 413.4 92.9 414.7 93 415.3C93.4 418 94.3 420.6 95 423.3C94.9 423.4 94.7 423.5 94.6 423.6C91.7 421 88.9 418.7 86.2 415.9C83.4 413 80.9 409.9 78.4 406.8C77.5 405.7 76.9 404.5 75.3 405.2C73.8 406 74.4 407.3 74.9 408.5C75 408.6 75 408.8 75.1 409.4C72.6 406.9 70.1 404.7 67.9 402.4C46.9 380 30.8 354.4 19.8 325.7C12.8 307.4 8.09999 288.6 5.79999 269.2C3.89999 253.7 3.49999 238.1 4.69999 222.5C7.49999 188.2 17.1 155.9 33.9 125.8C48.9 98.8 68.6 75.6 92.7 56.3C116.7 37.1 143.6 23.1 173.1 14.3C188.3 9.7 203.8 6.8 219.7 5.4C232.5 4.3 245.4 4.2 258.2 5.2C284.1 7.1 309 13.1 332.7 23.3C370.2 39.2 401.6 63.4 426.7 95.5C447.2 121.7 461.4 151 469.5 183.2C475.2 205.9 477.5 229 476.3 252.4C474.6 291.2 463.8 327.3 444.3 360.7Z" fill="black"/>
<path id="Vector_2" fill-rule="evenodd" clip-rule="evenodd" d="M390.6 413.3V422.3C390.6 422.7 390.5 423.2 390.2 423.4L383.6 428.4C383.9 427.5 384.4 426.5 384.8 425.4C386.6 421.3 388.3 417.2 390.1 413C390.3 413.2 390.4 413.2 390.6 413.3Z" fill="#098407"/>
<path id="Vector_3" fill-rule="evenodd" clip-rule="evenodd" d="M380.4 426.5C378.7 422.5 377 418.5 375.4 414.5C374.7 412.9 374.4 411.4 373.7 409.4C372.9 410.5 372.5 411.4 371.9 412.2C369.6 415.2 367.4 418.3 365 421.3C363.6 423 361.9 422.6 361 420.5C360.7 419.8 360.6 419.1 360.6 418.3C360.7 413.6 360.7 409.1 361.2 404.5C361.5 400.9 362.4 397.5 363.1 393.6C362.4 394.3 362.1 394.6 361.8 395C355.7 402.1 351.1 410.2 348 419C347.6 420.2 347 421.2 345.6 420.8C344.2 420.4 344.1 419.2 344.5 417.8C344.9 416.2 345.4 414.7 345.4 413C345.4 409.9 345.3 406.8 345 403.6C344.8 401.4 344.3 399.3 344 397.1C343 400.1 342.6 403 341.7 405.9C340.4 409.8 338.8 413.7 337.2 417.5C336.9 418.2 335.9 418.7 335.2 418.8C334.8 418.9 334.1 418 333.7 417.5C332.7 416.3 333 414.9 333.3 413.5C334.1 409.8 334.7 406.1 335.4 402.4C335.2 402.3 334.8 402.3 334.6 402.2C332.9 406 331.2 409.8 329.5 413.5C328.9 414.8 328.6 416.5 326.6 416.1C324.8 415.7 324.7 414.2 324.8 412.6C324.9 410.6 324.9 408.5 324.9 406.5C324.8 400.6 324 394.6 322.3 388.9C322.2 389.3 322.1 389.8 322.1 390.2C321.5 397.7 319.9 404.8 317.3 411.8C316.9 413.1 316.2 414.1 314.5 414C311.7 413.9 309.1 413.9 306.4 413.7C287.8 412.6 269.2 411.5 250.5 412.4C240.3 412.8 230 413.1 219.7 413.7C210.3 414.3 200.9 415.4 191.5 416.3C189.7 416.4 188.7 416.1 188.4 414.2C188.3 413.5 187.6 412.9 187.1 412.2C186.3 411.3 185.3 410.5 184.7 409.4C182.6 405.8 180.6 402.2 178.6 398.5C177.5 396.5 176.7 394.3 175.8 392.1C175.4 393.9 175.1 395.6 175.4 397.2C176.9 406.9 172.1 417 163.5 421.9C154.7 427 143.6 426 135.8 419.9C130.2 415.6 128.4 408.9 124.8 403.3C123.1 400.7 122.2 397.8 120.8 395.2C120.7 397.7 120.9 400 121.1 402.3C121.7 409.3 121.4 416.3 120 423.3C119.8 424.4 119.3 425.6 117.8 425.5C116.4 425.5 115.4 424.7 115 423.3C114.6 421.9 114.3 420.5 113.9 419.2C113.5 417.9 113 416.6 112.6 415.3C112.2 414.2 111.6 413 111.3 412.3C111.1 418.2 110.9 424.3 110.4 430.5C110.4 431.4 109.8 432.8 109.3 433C108.4 433.2 107.2 432.7 106.4 432C103.6 429.5 101.1 427 98.3 424.2C98.7 425.4 99.4 426.4 99.6 427.5C99.8 428.6 99.6 429.7 99.6 431.2C99.7 431.3 100.3 431.8 100.8 432.2C111.7 440 123 446.9 135 452.8C157.3 463.6 180.8 471.1 205.5 474.6C218.8 476.5 232.1 477.2 245.6 477.1C261.5 476.9 277.2 474.8 292.7 471.2C325.2 463.6 354.8 449.9 381.4 430C382.5 430 382.9 429.3 383.6 428.8C382 428.6 381 427.8 380.4 426.5ZM131.3 436.3C129.3 436.9 128.9 437.9 129.1 439.6C129.2 440.9 129.3 442.4 129.1 443.6C129 444.4 128.1 444.9 127.7 445.6C127.1 444.9 126.2 444.4 126.2 443.7C126.1 438.7 126.1 433.8 126.1 428.8C126.1 427 127.4 426.8 129.3 426.9C129.6 426.9 130.3 427 131 427.2C133.2 427.8 134.9 429.5 135 431.5C135 433.6 133.7 435.7 131.3 436.3ZM143.6 448.7C143.6 450.1 143.3 451.5 141.6 451.5C139.9 451.5 139.8 450.1 139.8 448.7C139.8 442.5 139.7 436.3 139.7 430.1C139.7 428.8 139.8 427.3 141.6 427.3C143.1 427.3 143.4 428.7 143.4 430C143.6 433.3 143.6 436.4 143.6 439.6V448.7ZM161.6 430.8C159.7 431.1 157.6 431.2 155.8 431.2C154.5 431.2 153.9 431.6 154 433C154.1 435 154.1 436.9 154 438.9C154 440.1 154.6 440.6 155.7 440.7C157.2 440.8 158.9 440.9 160.3 441.5C161 441.7 161.4 442.8 161.8 443.5C161 443.9 160.4 444.7 159.6 444.7C158.3 444.8 157.1 444.5 155.7 444.3C154.5 444.1 153.9 444.4 153.9 445.7C153.9 448.3 153.9 450.7 154 453.3C154 453.9 154.8 454.7 155.3 454.9C157 455.6 158.7 455.8 160.4 456.5C161.2 456.8 162.3 457.9 162.3 458.6C162.2 460 160.9 460 159.5 459.7C157.3 459 155.1 458.4 152.8 457.8C151.1 457.4 150.4 456.4 150.4 454.6V431C150.4 429.4 151.1 428.4 152.7 428.2C154.4 427.9 156.1 427.8 157.9 427.6C159 427.5 160.3 427.2 161.3 427.5C162.2 427.6 163 428.5 163.8 429.1C163.2 429.7 162.5 430.7 161.6 430.8ZM176.1 459.7C174.2 461.4 172.1 462.5 169.5 462.5C167.7 462.6 167 461.8 167 460V459C167 448.5 166.9 438.2 166.9 427.8C166.9 424.6 168 423.7 171.2 424.5C175.7 425.7 178.6 429 180.1 433.1C181.5 436.6 182 440.2 182.5 442.3C182.1 449.9 180.8 455.5 176.1 459.7ZM187.3 466.8C185.1 466.8 185.6 464.7 185.6 463.2V443.4C185.5 443.4 185.5 443.4 185.5 443.4V423.8C185.5 423.1 185.4 422.4 185.6 421.8C185.9 421.1 186.7 420.4 187.3 420.4C187.9 420.4 188.6 421.2 189 421.8C189.2 422.1 189.1 422.8 189.1 423.4C189.1 436.7 189.2 449.9 189.2 463.3C189.1 464.7 189.6 466.8 187.3 466.8ZM212.9 435C211.1 436.1 209.2 437 207.2 437.6C205.7 438 205.2 438.6 205.2 440.2C205.3 449 205.3 457.9 205.3 466.7V467.1C205.3 468.4 204.9 469.3 203.5 469.3C202.1 469.3 201.6 468.3 201.6 467C201.5 459.4 201.5 451.8 201.5 444.2V421.9C201.5 419.2 201.9 418.9 204.6 418.9C207.6 418.9 210.3 419.6 212.7 421.1C218.1 424.5 218.2 431.4 212.9 435ZM234.8 420.4C232.3 420.5 229.7 420.7 227.2 420.8C225.7 420.8 225.2 421.5 225.2 422.9C225.3 427.6 225.3 432.1 225.2 436.8C225.2 438.1 225.8 438.6 227 438.6C228 438.5 229.1 438.4 230 438.7C230.7 438.9 231.1 439.8 231.8 440.4C231.2 441 230.7 441.8 230 442C228.7 442.2 227.2 442 225.6 442C225.5 442.8 225.5 443.4 225.5 444V464.1C225.5 465.8 225.9 466.4 227.7 466.4C229.8 466.5 231.8 466.5 233.8 467C234.7 467.1 235.3 468.1 236.1 468.8C235.2 469.2 234.4 470.2 233.6 470.2C230.4 470.2 227.2 469.9 224 469.5C222.5 469.4 221.8 468.5 221.8 466.9V421.9C221.8 418.3 220.8 417.6 226.1 417.3C229 417.2 231.8 417 234.7 416.9C235.9 416.9 237.2 416.8 237.3 418.5C237.4 420 236.1 420.3 234.8 420.4ZM258.5 470.2C257 470.6 256.4 469.5 256 468.3C253.1 459.9 250.4 451.7 247.5 443.4C247.3 442.7 247.1 442.2 246.4 441.7C246.4 442.4 246.3 443 246.3 443.6V467.6C246.3 468 246.4 468.7 246.3 469C245.9 469.7 245.2 470.6 244.5 470.6C243.8 470.6 243.1 469.8 242.7 469.2C242.4 468.8 242.6 468 242.6 467.4C242.6 451.6 242.6 435.9 242.5 420C242.5 417.5 242.9 417.2 245.4 417.1C249.1 417 252.6 417.8 255.4 420.3C259 423.4 259.4 428.8 256 432C254.1 433.7 251.7 434.9 249.1 436.6C250.2 439.8 251.4 443.5 252.6 447.1C254.8 453.8 257.1 460.5 259.4 467.2C259.8 468.4 260 469.7 258.5 470.2ZM289.8 419.6H278.9V466.7C278.9 467.9 278.6 468.9 277.1 469C275.6 469 275.1 468 275.1 466.7C275.1 461.4 275 455.9 275 450.5V421.7C275 420 274.6 419.5 272.8 419.5C269.3 419.6 265.8 419.5 262.1 419.5C261.4 419.5 260.7 419.5 260.1 419.3C259.7 419.1 259.1 418.3 259 417.9C259 417.5 259.6 416.8 260 416.6C260.7 416.3 261.4 416.3 262.2 416.3C271.2 416.3 280.1 416.3 289.2 416.2H289.6C290.9 416.3 292.7 416.1 292.8 418C292.8 419.9 291.1 419.6 289.8 419.6ZM311.8 419.9C307.7 419.5 303.9 419.2 299.7 418.9V436.6C301.7 436.4 303.4 436.2 305.2 435.9C306.5 435.8 307.8 435.8 308.1 437.3C308.3 438.9 307 439.1 305.8 439.3C304.3 439.5 302.7 439.7 301.2 439.9C300.2 440 299.8 440.2 299.8 441.3V460.2C302.8 459.5 305.6 458.8 308.4 458.1C309.2 458 309.8 457.4 310.6 457.7C311.6 457.8 312.9 458.1 313.2 458.9C313.9 460.2 312.6 460.8 311.4 461C307.9 461.9 304.2 462.8 300.7 463.7C296 464.9 296 465 296.1 460.1C296.1 453.1 296 445.9 296 438.9V418.1C296 416.2 296.9 415.3 298.8 415.4C303.3 415.7 307.8 416 312.2 416.4C313 416.5 314.4 417.5 314.4 418.2C314.4 419.8 313 420 311.8 419.9ZM329.5 453.6C328 454.2 327.3 452.9 327 451.7C325.9 448.6 324.8 445.5 323.7 442.2C323.3 440.8 322.7 439.3 322.2 437.9C322.1 437.9 321.9 438 321.8 438V455.7C321.8 456.9 321.4 457.9 319.9 457.9C318.5 457.9 318.1 456.9 318.1 455.7V422.2C318.1 420.4 318.9 419.6 320.6 420C322 420.2 323.6 420.4 324.9 421C330.1 423.1 330.7 428.9 326.2 432.1C324.9 433.1 324.7 433.9 325.2 435.3C327 440.2 328.5 445.2 330.3 450.2C330.3 450.3 330.4 450.4 330.4 450.5C330.9 451.8 331 453.1 329.5 453.6ZM344.4 436.4C345.5 439.3 346.5 442.3 347.4 445.3C347.8 446.4 347.8 447.5 346.5 448.1C345.2 448.5 344.3 447.8 344 446.5C343.6 444.9 343 443.4 342.5 441.8C341.9 440.2 341.4 438.8 340.8 437.2C340.6 437.1 340.5 437.1 340.2 437.1V445.8C340.2 447 340.4 448.4 340.1 449.5C339.9 450.4 339.1 451.6 338.3 451.7C336.9 452 336.4 450.7 336.4 449.5V424.9C336.4 422.7 337.4 421.6 339.7 421.8C341.5 422 343.3 422.5 344.9 423.4C349 425.9 349.1 430.8 345.2 433.5C344 434.4 343.8 435.1 344.4 436.4ZM366.5 438.3C366.2 438.6 365.2 438.2 364.5 438.1C364.3 438.1 364.2 437.7 363.9 437.4C363 436.6 363.1 434.4 361.4 435.1C359.3 435.9 356.4 436.2 356.2 439.6C356.1 440.9 355.8 442.3 355.3 443.6C355.1 444 354.1 444.7 353.6 444.6C353.2 444.5 352.6 443.6 352.3 443.3C353.3 438.5 354.1 434.1 354.9 429.6C355.2 428 355.5 426.5 355.9 425C356.1 424.3 356.9 423.6 357.4 423.4C358 423.3 359.1 423.7 359.5 424.3C362 428.3 364.5 432.2 366.8 436.3C367.3 436.8 366.9 437.9 366.5 438.3Z" fill="#098407"/>
<path id="Vector_4" fill-rule="evenodd" clip-rule="evenodd" d="M312.6 409.7C312 410.1 311.2 410.1 310.5 410.1C302.8 409.7 295.2 409 287.5 408.8C276.7 408.6 266 408.6 255.2 408.6H253.5C253.5 406.7 253.5 405.1 253.6 403.1H281.6C283.8 403.1 285.5 402.8 286.3 400.1C286.7 398.8 288.6 397.4 290.2 396.9C296.9 394.3 303.7 394.4 310.5 397.2C315.1 399.1 316.2 406.2 312.6 409.7Z" fill="#1F1F1F"/>
<path id="Vector_5" fill-rule="evenodd" clip-rule="evenodd" d="M249.1 408.4C246.6 408.4 244.1 408.3 241.7 408.4C232.6 408.8 223.4 409.2 214.4 409.7C207.4 410.1 200.4 411 193.4 411.7C192.8 411.7 192.1 411.6 191.6 411.3C189.1 409 187.4 406.1 187 402.5C186.8 400.5 187.4 398.9 189.3 397.9C193.6 395.4 198.3 394.7 203.1 395.1C206.3 395.4 209.5 396.4 212.5 397.6C213.8 398 214.8 399.6 215.4 400.9C216.2 402.9 217.7 403 219.4 403H249C249.1 405 249.1 406.7 249.1 408.4Z" fill="#1F1F1F"/>
<path id="Vector_6" fill-rule="evenodd" clip-rule="evenodd" d="M248.1 399.4C247.4 399.4 246.9 399.5 246.3 399.5H220.4C219.8 399.5 218.7 399.3 218.5 398.8C216.2 394.5 212.1 393.1 207.8 392.1C202.5 390.9 197.2 391.2 191.9 392.8C191.7 392.8 191.2 392.8 190.6 392.9C193.9 389.4 197.6 387.3 201.6 386.2C214.2 382.1 226.4 382.6 238.3 388.3C240.9 389.5 243.1 391.6 245.6 393.4C247.6 394.8 248.1 397 248.1 399.4Z" fill="#1F1F1F"/>
<path id="Vector_7" fill-rule="evenodd" clip-rule="evenodd" d="M308.6 391.8C304.2 391.7 299.9 391.2 295.6 391.7C292.4 392 289.3 393.4 286.4 394.6C285.2 395 284.1 396.3 283.4 397.5C282.6 399.1 281.6 399.4 280.1 399.4H253.8C253.5 395.8 255.1 393.6 257.4 391.4C263 386.8 269.7 384.8 276.8 384C286.3 383 295.3 384.2 303.8 388.7C305.5 389.6 307.2 390.8 308.6 391.8Z" fill="#1F1F1F"/>
<path id="Vector_8" fill-rule="evenodd" clip-rule="evenodd" d="M280.8 380.2C274.7 380.3 269.1 381.4 263.5 383.7C263.1 383.8 262 383.5 261.6 383C259.5 379.7 259.7 374.6 262 371.4C263.4 369.3 265.6 368.6 267.8 368.5C270.6 368.3 273.2 368.6 275.9 368.8C276.3 368.9 276.9 369.4 277.2 369.7C280.1 372.7 281 376.2 280.8 380.2Z" fill="#1F1F1F"/>
<path id="Vector_9" fill-rule="evenodd" clip-rule="evenodd" d="M258.5 386C256.6 387.6 254.9 389.1 252.8 390.8V380.1C255.6 381.4 257.2 383.5 258.5 386Z" fill="#1F1F1F"/>
<path id="Vector_10" fill-rule="evenodd" clip-rule="evenodd" d="M248.9 380V390.6C246.8 388.9 244.9 387.5 242.8 385.9C244.1 383.3 245.8 381.3 248.9 380Z" fill="#1F1F1F"/>
<path id="Vector_11" fill-rule="evenodd" clip-rule="evenodd" d="M240.2 381.3C239.9 382.2 239.3 383.1 239.1 383.5C232.7 382.1 226.8 380.6 220.4 379.2C220.2 375.9 221.3 372.5 223.9 369.7C224.5 369 225.6 368.8 226.4 368.7C228.6 368.6 231 368.3 233.2 368.6C239.4 369.6 242.5 375.3 240.2 381.3Z" fill="#1F1F1F"/>
<path id="Vector_12" fill-rule="evenodd" clip-rule="evenodd" d="M256 312.9C255 314 254 315 252.8 316.4V312.9H256Z" fill="#1F1F1F"/>
<path id="Vector_13" fill-rule="evenodd" clip-rule="evenodd" d="M248.9 312.9V316.8C247.7 315.5 246.6 314.2 245.3 312.9H248.9Z" fill="#1F1F1F"/>
<path id="Vector_14" fill-rule="evenodd" clip-rule="evenodd" d="M232.5 312.9C231.6 313.9 230.5 314.9 229.6 315.9C229.5 311.9 230.4 311.9 232.5 312.9Z" fill="#1F1F1F"/>
<path id="Vector_15" fill-rule="evenodd" clip-rule="evenodd" d="M232.3 338.3C230.8 338.3 229.3 338.4 227.9 338.2C227.5 338.1 226.8 337.1 226.8 336.5C226.8 334.9 227.2 333.3 227.5 331.7C229.1 333.9 230.5 336 232.3 338.3Z" fill="#1F1F1F"/>
<path id="Vector_16" fill-rule="evenodd" clip-rule="evenodd" d="M248.8 333.8V338.1H244.8C246.3 336.6 247.4 335.3 248.8 333.8Z" fill="#1F1F1F"/>
<path id="Vector_17" fill-rule="evenodd" clip-rule="evenodd" d="M256.4 338.2H252.8V334.3C254.1 335.7 255.2 336.9 256.4 338.2Z" fill="#1F1F1F"/>
<path id="Vector_18" fill-rule="evenodd" clip-rule="evenodd" d="M272.9 338.5C271.6 338.6 270.3 338.4 269 338.4C270.7 335.9 272.3 333.6 274 331.3C274.3 332.7 274.8 334.3 275 336C275.1 337.3 274.3 338.3 272.9 338.5Z" fill="#1F1F1F"/>
<path id="Vector_19" fill-rule="evenodd" clip-rule="evenodd" d="M244.3 333.6C240.8 337.6 235.2 337.2 232.4 332.6C231.2 330.6 230.7 328.3 230 326C230.6 322.5 231.5 319.5 233.7 317.1C236.9 313.8 241.7 314 244.6 317.5C248.3 322 248.1 329.3 244.3 333.6Z" fill="#1F1F1F"/>
<path id="Vector_20" fill-rule="evenodd" clip-rule="evenodd" d="M270.8 327.3C270.8 328.7 270 331.3 268.2 333.5C265.2 337.1 260.6 337.3 257.3 333.9C253.1 329.7 252.8 321.9 256.7 317.3C259.5 314.2 264 313.8 267 316.7C269.7 319.3 270.8 322.4 270.8 327.3Z" fill="#1F1F1F"/>
<path id="Vector_21" fill-rule="evenodd" clip-rule="evenodd" d="M313.8 222C312.8 224.9 311.8 227.8 310.5 230.7C310.1 225.8 308.6 221.3 305.7 217.4C305.8 217.3 305.9 217.1 306 217C308.5 218.2 311 219.5 313.4 220.9C313.5 221 313.9 221.7 313.8 222Z" fill="#D50004"/>
<path id="Vector_22" fill-rule="evenodd" clip-rule="evenodd" d="M285 210.4C277.6 212.6 272.9 217.1 270.2 224.3C268.2 218.4 266.6 213.3 264.8 207.7C271.7 207.8 278.1 208.8 285 210.4Z" fill="#D50004"/>
<path id="Vector_23" fill-rule="evenodd" clip-rule="evenodd" d="M196.2 216C192.9 220 190.7 224.4 190.3 229.6C190.2 229.5 190 229.5 189.9 229.5C189 226.7 187.9 223.9 187 221.1C186.9 220.7 187.2 219.8 187.6 219.7C190.2 218.2 193.2 217.1 196.2 216Z" fill="#D50004"/>
<path id="Vector_24" fill-rule="evenodd" clip-rule="evenodd" d="M233.5 207.8C232.4 212.8 231.5 217.3 230.5 222.2C227.2 216.2 222.8 212.1 216.3 210.5V210C221.9 209.3 227.4 208.6 233.5 207.8Z" fill="#D50004"/>
<path id="Vector_25" fill-rule="evenodd" clip-rule="evenodd" d="M351 120.6C347.5 110.6 341.6 102 332.7 96C321.8 88.6 309.7 87.2 297 89.1C280.7 91.6 266.8 99.4 253.5 108.5C252.5 109.2 251.6 110.7 250.7 110.7C249.7 110.7 248.7 109.4 247.6 108.7C240.3 103.8 233 99 224.9 95.4C212.8 90.1 200.2 86.8 186.9 88.7C171 90.9 159.6 99.7 152.6 113.9C145.4 128.3 144.1 143.7 145.6 159.4C146.6 170.2 148.9 180.8 152.3 191.2C160.1 214.9 172.1 236.2 188.4 255.1C200.7 269.5 214.9 281.7 231.8 290.5C232.2 290.7 232.8 290.8 233.3 291.2C234 287.4 234.3 283.7 235.2 280.2C235.8 277.9 235.1 276.6 233.3 275.1C227.4 269.9 223.7 263.3 224.1 255C224.2 252.4 224.4 249.9 224.7 247.6C221.6 249 218.5 250.5 215.2 252.1C215.3 252.2 215.5 252.4 215.6 252.8C218.7 256.5 217.6 260 212.8 261C208.1 262.1 203.6 260.9 199.7 258C198 256.8 196.7 255.2 196.8 252.9C196.8 252.3 196.4 251.7 196 251.1C190.6 242.1 186.4 232.5 183.3 222.5C182 218.2 182 218.2 186.1 216.3C196.4 211.4 207.2 208.2 218.6 206.3C222.7 205.6 226.7 205.2 230.9 204.6C210.2 191.1 212.2 165.1 224.5 152.7C237.6 139.5 258.5 139.2 271.9 152.3C284.6 164.3 287.3 189.9 266.9 204.2C267.3 204.2 267.7 204.3 268 204.3C277.2 205.1 286.3 206.9 295.2 209.5C302.4 211.6 309.2 214.4 315.7 218.2C317.9 219.5 318.2 220.1 317.4 222.4C314.9 228.9 312.2 235.2 309.6 241.7C307.9 245.8 304.6 249.3 303.8 253.7C303.7 254.5 303 255.1 302.4 255.7C298.7 259.2 294.1 260.7 289.1 260C287.2 259.8 285.6 258.9 284.8 257C284 255 284.9 253.4 286.1 252C286.4 251.6 286.8 251.1 287 250.9C283.8 249.6 280.7 248.4 277.9 247.2C278.1 248.9 278.7 250.9 278.7 252.9C279 263.2 274.8 271.4 266.4 277.3C265.8 277.6 265.3 278.6 265.3 279.2C265.9 283.2 266.6 287.2 267.4 291.6C270.6 289.8 273.7 288.1 276.6 286.4C290.9 277.6 303.2 266.5 313.8 253.6C336.9 225.3 352.2 193.8 355.2 156.8C356.3 144.3 355.2 132.3 351 120.6ZM175.4 206.4C175.1 206.7 174.1 206.8 173.5 206.6C172.8 206.4 172.3 205.8 171.7 205.3C164.5 198.5 159.9 190 156.7 180.8C150.3 162.3 148.9 143.5 154.2 124.4C156.3 116.7 159.5 109.6 165.3 104C167.5 101.9 170.3 100.4 172.8 98.8C173.4 98.7 174 98.6 175 98.2C175.4 98.5 176.2 99 176.4 99.5C176.5 99.9 176.2 100.7 176 101.3C176 101.4 175.7 101.6 175.6 101.6C165.5 105.8 161.2 114.6 158.1 124.2C154.4 136.1 154 148.3 155.7 160.5C157.1 171.4 160.1 182 165.8 191.5C168.3 195.6 171.7 199.2 174.7 203.1C175 203.5 175.7 203.9 175.7 204.3C175.8 205.1 175.8 206 175.4 206.4ZM189.7 179.9C190.1 185.7 190.4 191.5 190.5 197.3C190.5 198.6 190.2 200.2 189.6 201.4C188.5 204.2 186.2 204.7 183.9 202.7C180.2 199.5 178 195.3 176.7 190.7C171.6 171.9 170.5 152.8 172.7 133.4C174 121.7 176.3 110.2 179.5 99C179.8 97.9 180.3 96.5 181.6 97.2C182.2 97.4 182.7 99.1 182.5 99.9C181 106.7 179 113.5 177.8 120.3C174.8 137.6 173.5 155 176.3 172.3C177.3 178.8 178.8 185.1 180.4 191.5C181.3 194.5 183.2 197.3 186.1 200C186.4 198.6 187 197.4 186.9 196.3C186.8 190.3 186.3 184.4 186.2 178.4C186.1 173.1 186.1 167.8 186 162.5C185.9 154.3 185.6 146 185.9 137.8C186.1 129.3 187.1 120.9 187.6 112.4C187.8 108.5 187.7 104.6 187.8 100.8C187.8 99.8 187.7 98.8 188.1 98C188.4 97.3 189.4 96.9 190.1 96.3C190.7 97.1 191.6 97.9 191.6 98.5C191.3 106.1 190.8 113.7 190.4 121.1C189.2 140.6 188.3 160.3 189.7 179.9ZM207.3 122.5C207 143.7 206.7 164.8 206.4 186C206.3 191 206 196 205.7 201.2C205.6 204.1 203.5 205.3 201 204.1C196.9 202.2 195.3 198.5 194.8 194.4C194.1 187.5 193.7 180.6 193.5 173.7C193.3 166.3 193.5 159 193.5 151.6C193.3 151.5 193.2 151.5 193.1 151.5C193.1 140.1 192.9 128.7 193.2 117.2C193.3 110.6 194.2 103.9 195.2 97.4C195.8 93.3 200.4 91 204 92.7C207.2 94.1 207.6 97.3 207.6 100.3C207.6 107.5 207.4 115 207.3 122.5ZM219 157C217.3 157.2 217 155.9 216.8 154.7C215.8 148.1 214.9 141.7 213.9 135.1C213.8 134.2 213.6 133.3 213.3 132.5H212.6V139.7C213 157.9 213.6 175.9 214 194C214 195.8 214.1 197.6 214.1 199.3C214.1 200.5 213.9 201.9 212.4 201.9C210.9 201.9 210.5 200.7 210.5 199.3C210.2 189.7 209.7 180.1 209.6 170.5C209.4 155.8 209 141.1 209.4 126.4C209.6 117.5 210.9 108.6 211.8 99.5C212 97.2 213.3 96.6 215.7 97C221.8 98.2 224 106.2 222.5 110.5C221.1 114.5 219.1 118.3 215.6 120.9C214.4 121.8 214.9 122.7 215 123.6C216.7 133.5 218.3 143.4 220.1 153.4C220.1 153.6 220.2 154 220.2 154.2C220.5 155.5 220.5 156.8 219 157ZM226.2 139C225.9 142 225.8 144.9 225.4 147.9C225.3 149.2 225.2 150.7 223.3 150.5C221.6 150.3 221.8 148.8 221.9 147.6V146.8C221.9 146.9 221.8 146.9 221.6 146.8C223.1 132.6 224.6 118.4 226.1 104.2C226.1 103.6 226.1 103 226.4 102.6C227 102 227.8 101.3 228.5 101.5C229.1 101.6 229.8 102.8 229.7 103.4C229.6 105.5 229 107.7 228.9 109.9C228 119.6 227.1 129.3 226.2 139ZM246.3 113.9C245.5 121.6 244.9 129.2 244.1 136.9C244 137.9 243.2 139.4 242.6 139.5C241.1 139.8 240.8 138.4 240.4 137.2C238.6 131.5 236.9 125.8 235.1 120.1C235.1 120.2 235 120.2 234.9 120.2C234.3 126.8 233.7 133.5 233.1 140.1C233.1 140.8 233.1 141.5 232.8 142.1C232.4 142.9 231.5 143.4 230.9 144C230.5 143.2 229.5 142.4 229.5 141.7C229.5 139.4 229.7 136.9 229.9 134.6C230.8 126 231.7 117.4 232.5 108.9C232.6 108.1 232.5 107.5 232.5 106.7C232.5 105.3 233.3 104.2 234.7 104.4C236.1 104.4 236.1 105.5 236.5 106.7C237.9 113.3 239.4 119.9 240.8 126.3C240.8 126.4 241 126.4 241.2 126.6C241.8 122.1 242.3 117.9 242.7 113.6C242.8 112.3 243.1 110.9 244.7 111C246.5 111 246.4 112.6 246.3 113.9ZM252.3 124.8C253.7 125.9 253.7 126.9 252.3 128C251.7 128.4 251.2 129.1 251.1 129.8C250.8 132.3 250.7 134.6 250.4 137.4C251.4 137.4 252.3 137.2 252.9 137.4C253.7 137.7 254.3 138.4 255 139C254.4 139.7 254 140.3 253.3 140.8C253 141.1 252.2 141 251.8 141C247.1 141.1 246.6 140.9 247 136.1C247.3 130.5 247.8 125 248.1 119.4C248.2 118.3 248.2 117.2 248 116.2C247.6 114.5 248.2 113.6 249.8 113.4C251.2 113.3 252.7 113.1 254.1 113.4C254.9 113.5 255.4 114.7 256 115.4C255.3 115.8 254.6 116.5 253.8 116.8C253.1 117.1 252.5 117 251.7 117C251.6 119.3 251.5 121.5 251.5 123.7C251.4 124 251.9 124.6 252.3 124.8ZM264.7 143.3C262.8 142.9 261.1 141.9 259.2 141.3C257.5 140.7 256.8 139.7 256.9 138C257.2 129.3 257.5 120.6 257.8 111.9C257.8 110.5 257.8 108.4 259.9 108.7C262 108.8 261.4 110.7 261.1 112C261 119.9 260.8 127.9 260.5 135.8C260.5 137.4 260.9 138.1 262.4 138.6C263.7 139 265.2 139.5 266.3 140.3C266.9 140.6 267 141.7 267.2 142.5C266.3 142.9 265.3 143.5 264.7 143.3ZM277 102.9C271.9 110 270.5 118.2 270.2 126.6C270.1 132.1 271.3 137.2 274.2 142C275.1 143.4 276 144.9 276.5 146.5C276.7 147.2 276.2 148.2 275.9 149C275.1 148.7 273.9 148.7 273.5 148.1C269.6 141.5 266.1 134.7 266.7 126.6C267.1 117.6 268.6 108.8 274.1 101.2C275 100.1 275.5 98.1 277.4 99.3C279.1 100.3 277.9 101.7 277 102.9ZM281.7 156.7C280.3 156.7 280.2 155.4 280.2 154.2V145.8C280.1 145.7 280 145.7 280 145.7C281.1 134.2 282.1 122.7 283.2 111.3C283.5 107.6 284 103.8 284.3 100.2C284.3 99.8 284.3 99.4 284.4 99C284.6 97.8 284.6 96 286.4 96.2C288.3 96.3 287.9 98 287.8 99.4C286.5 113.9 285 128.4 283.8 143C283.5 146.7 283.6 150.5 283.5 154.3C283.5 155.5 283.4 156.7 281.7 156.7ZM292.6 145.4C293.6 145.4 294.6 145.3 295.5 145.6C296.3 145.9 296.9 146.7 297.6 147.3C296.8 147.9 296.2 148.7 295.4 148.9C294.4 149.1 293.2 148.8 292.2 148.9C291.6 149 290.8 149.7 290.8 150.2C289.9 161.9 289 173.7 288.3 185.4C288.1 188.6 288.1 191.9 287.7 195C287.6 196.6 287.9 197.2 289.5 197.5C291.3 197.8 292.9 198.3 294.7 198.8C295.8 199.1 296.9 199.6 296.5 201C296.2 202.3 295.1 202.4 293.9 202.1C291.3 201.4 288.6 200.8 286 200.2C284.6 199.9 284.1 199.1 284.1 197.6C284.2 195.4 284.3 193.1 284.4 190.8C284.1 190.9 284.1 190.9 284 190.9C285.1 176.7 286 162.7 287.3 148.6C288.3 137.3 289.7 126 290.9 114.7C291.6 109.1 292.1 103.4 292.7 97.9C292.8 96.2 293.5 95.4 295.1 95.2C298.7 94.8 302.4 94.2 306 93.6C306.4 93.6 306.9 93.4 307.2 93.6C308 94 308.6 94.6 309.3 95C308.7 95.7 308.3 96.7 307.8 96.8C305 97.4 302.3 97.7 299.5 98C296.4 98.3 296.3 98.3 296 101.3C294.5 115.3 292.9 129.4 291.4 143.5C291.1 145 291.5 145.3 292.6 145.4ZM316.4 209.4C315.6 209.6 314.6 209.7 314 209.5C310.8 208.3 307.7 206.9 304.5 205.7C303.7 205.4 303 205.1 302.1 205.1C300 205.2 299.6 204 299.6 202.2V196.3C300.7 187.2 301.5 177.9 302.8 168.7C306 145.9 309.3 123 312.6 100.2C312.8 98.4 313 96.6 313.4 95C313.6 93.8 314.1 92.7 315.6 92.9C317 93.1 317.1 94.3 316.9 95.5C315.9 102.3 314.9 109 313.9 115.7C311.8 130.5 309.5 145.2 307.5 159.9C306.1 170.5 304.9 181.1 303.6 191.8C303.3 194.5 303.5 197.3 303.3 199.9C303.2 201.1 303.6 201.7 304.8 202.1C308.3 203.4 311.7 204.9 315.1 206.3C315.9 206.6 316.4 207.4 316.9 208.1C317.1 208.3 316.7 209.3 316.4 209.4ZM343.5 181.3C341.1 190.8 338.1 200.1 333.7 208.9C333.3 209.9 332.6 210.8 332 211.7C329 216.4 323.3 214.5 321.1 210.7C319.3 207.6 319.7 204.2 320.2 201C321.5 192.4 322.8 183.8 324.2 175.3C326.6 159.4 328.9 143.5 331.4 127.7C332.1 123 333.1 118.5 333.9 113.9C334.2 112 334.9 110 337.1 109.6C339.4 109.2 341.1 110.4 342.4 112.1C345 115.7 346.5 119.7 346.8 124C347.1 129.8 347.5 135.9 347.8 142.1C347.3 155.2 346.8 168.4 343.5 181.3Z" fill="#D50004"/>
<path id="Vector_26" fill-rule="evenodd" clip-rule="evenodd" d="M469.8 183.3C461.7 151.1 447.5 121.8 427 95.6C401.9 63.5 370.5 39.3 333 23.4C309.2 13.3 284.3 7.2 258.5 5.3C245.6 4.3 232.7 4.4 220 5.5C204.1 6.9 188.6 9.8 173.4 14.4C143.9 23.2 117 37.2 93 56.4C68.8 75.9 49.1 99.1 34.1 126C17.4 156.1 7.69997 188.4 4.89997 222.7C3.69997 238.3 4.09997 253.9 5.99997 269.4C8.29997 288.8 12.9 307.6 20 325.9C31 354.5 47.1 380.2 68.1 402.6C70.3 404.9 72.7 407.2 75.3 409.6C75.2 409 75.2 408.8 75.1 408.7C74.7 407.5 74 406.1 75.5 405.4C77 404.6 77.7 405.8 78.6 407C81.1 410.1 83.7 413.2 86.4 416.1C89 418.9 91.9 421.2 94.8 423.8C94.9 423.7 95.1 423.6 95.2 423.5C94.5 420.8 93.7 418.2 93.2 415.5C93.1 414.8 93.6 413.6 94.2 413.3C94.6 413 95.7 413.6 96.4 414C96.7 414.1 96.8 414.7 97.1 415C100.2 419.7 103.7 423.9 108 428C108.1 426.7 108.3 425.7 108.3 424.7C108.6 416.3 108 408 105.8 399.8C105.5 398.5 105.5 397.3 106.8 396.9C108.2 396.5 108.8 397.6 109.2 398.8C109.5 399.8 109.6 400.9 110.2 401.8C111.6 404.4 113.3 406.8 114.8 409.4C115.5 410.5 115.9 411.9 116.5 413.1C116.9 414.2 117.5 415.4 118 417.1C118.2 416.1 118.3 415.5 118.4 415C119 405.6 118.4 396.5 115.4 387.6C115 386.4 114.3 385 115.8 384.1C117.5 383.2 118.6 384.3 119.3 385.5C121.2 388.4 123.2 391.3 125 394.2C125.8 395.3 126.3 396.7 127.2 398.2C129.3 386.8 135.3 379 146.4 376.7C157.4 374.4 166.4 378.5 172.9 387.7C173.6 385.2 174.1 382.8 175 380.6C175.3 379.8 176.4 379.4 177.2 378.8C177.6 379.7 178.2 380.6 178.4 381.5C178.7 383.1 178.3 384.8 178.8 386.3C180.1 390.3 181.8 394.2 183.2 398.1C183.3 398.4 183.6 398.8 183.6 398.8C185.1 396.1 186.5 393.2 188.3 390.8C192.7 385.2 199 382.8 205.6 381.1C208.6 380.3 212.5 380 216.3 379.4C216.6 377.5 216.7 375.5 217.4 373.7C218.1 371.8 219.2 370 220.2 368.2C220.5 367.5 220.6 366.9 220.8 366.3C222.1 358.5 223.6 350.6 224.8 342.8C224.9 342.1 224.5 341.4 224.2 340.6C223.8 338.9 222.9 337.3 222.9 335.7C222.9 333.5 223.7 331.1 224 328.9C224.7 323.8 225.3 318.5 226 313.4C226.2 311.7 226.8 310.2 228.4 309.7C230.3 309.3 230.7 307.9 230.9 306.4C231.2 304.4 231.6 302.4 231.9 300.4C232.1 298.8 233 296.8 232.3 295.7C231.6 294.5 229.7 294 228.2 293.2C210 283.3 195 269.8 182.2 253.7C159.9 225.6 145 194.3 141.9 158C140.8 145.6 141.8 133.4 145.8 121.6C150.2 108.2 157.9 97.2 170.6 90.5C182.8 84 195.8 83.6 209.1 86.5C223.9 89.7 236.8 96.4 249 105.3C250.1 106.1 250.8 106.5 252.2 105.5C266.4 95 281.8 87.3 299.6 85.2C310.2 84 320.4 85.2 330 90C343.5 96.9 351.5 108.4 356 122.7C359.9 134.7 360.4 147.1 359.3 159.7C358.4 170.6 356.1 181.3 352.8 191.8C346.1 213.2 335.6 232.6 322 250.3C307.7 268.8 290.8 284.3 269.9 295C268.8 295.6 268.5 296.1 268.7 297.3C269.4 300.9 269.9 304.4 270.6 307.9C270.7 308.7 271.5 309.7 272.3 310.1C273.7 311 274.8 312 275.2 313.8C276.3 320.7 277.5 327.7 278.8 334.6C279.2 336.9 279 338.8 277.4 340.6C277 341.2 276.6 342.2 276.7 342.8C277.6 348.3 278.5 353.8 279.5 359.3C279.9 362.1 279.9 365.3 281.3 367.7C283.6 371.7 285.3 375.7 285.3 380.3C298.6 381.7 310.8 385 318.2 397.9C319.3 390.7 320.2 383.9 317.2 377.2C316.9 376.5 317.2 375.4 317.8 374.7C318 374.4 319.6 374.6 319.9 374.9C321.3 376.5 322.7 378.1 323.8 380C326.7 385.3 328 391 328.8 396.9C329.1 399.6 329.5 402.4 329.8 405.3C332.1 401.5 334.2 397.9 336.5 394.5C336.9 393.8 338.3 393.2 338.9 393.4C339.6 393.6 340 395 340.2 395.9C340.4 397.3 340.2 398.8 340.2 400.4C340.4 399.6 340.6 399 340.8 398.3C341.1 395.4 341.5 392.5 341.7 389.6C341.8 387.8 342.8 386.7 344.3 386.5C345.8 386.2 346.4 387.6 346.6 388.8C347.4 392.1 348.3 395.4 348.9 398.7C349.5 401.5 349.7 404.3 350.1 407.7C350.8 406.6 351.1 406 351.4 405.4C355.5 398.4 360.2 391.9 366.4 386.7C367.1 386.1 368.3 386.3 369.3 385.9C369.5 386.9 370.1 388 369.7 388.8C367.2 395.6 365.7 402.6 365.3 409.9C365.2 412 365.3 414.1 365.3 416.3C365.4 416.3 365.6 416.4 365.7 416.4C367.2 414.1 368.9 411.7 370.4 409.4C371.5 407.6 372.3 405.7 373.4 404.1C373.8 403.4 374.8 402.8 375.5 402.8C376.2 402.9 376.8 403.8 377.2 404.5C377.5 405.3 377.6 406.2 377.9 407.1C379 412.2 380.7 417.2 383 422.1C383.2 421.8 383.4 421.7 383.4 421.4C386.3 416.1 389.2 410.8 392.1 405.5C392.4 404.9 392.8 404.4 392.9 403.8C393.2 402.5 393.7 401 395.3 401.6C397 402 396.6 403.5 396.4 404.8C395.8 409.3 395.4 413.7 395 418.2C395 418.8 395.1 419.3 395.1 419.9C399.7 417.6 401.5 412.2 406 410.2C421.1 395.5 434 379.1 444.5 360.9C464 327.5 474.8 291.4 476.8 252.7C477.8 229.1 475.5 206.1 469.8 183.3ZM110.3 104.5C109.2 105.9 108 105.4 106.8 104.5C103.6 102.4 100.4 100.3 97.1 98C94.6 100.9 92.1 103.5 89.9 106.1C89.5 106.5 89.5 107.8 89.7 108.4C91.5 112 93.2 115.4 95.1 118.9C95.8 120.1 96.4 121.4 95 122.2C93.6 123.2 92.5 122.2 91.8 121.1C89.5 116.8 87.1 112.4 85.1 107.8C83.1 103.1 81.6 98.2 80 93.4C79.7 92.3 79.4 90.9 79.4 89.8C79.4 86.6 81.6 84.8 84.5 86C88 87.4 91.2 89.6 94.6 91.2C95.4 91.5 96.4 91.8 97.1 91.5C98.6 91.3 99.3 91.8 99.7 93.3C99.9 94.1 100.4 95.1 101 95.5C103.5 97.4 106.3 99.2 108.9 101C110.2 102.1 111.3 103 110.3 104.5ZM132.9 85.1C132.1 86.2 130.9 85.7 130 84.8C128.8 83.5 127.5 82 126.1 80.6C125.2 83.4 125.1 86.3 123.7 88.1C121.6 90.7 119 88.4 116.8 87.4C116.7 87.5 116.5 87.6 116.2 87.7C116.9 90 117.5 92.4 118.2 94.7C118.5 95.6 119.2 96.5 119.2 97.4C119.2 98.2 118.9 99.4 118.2 99.7C117.6 100 116.1 99.6 115.8 99C113.6 94.8 111.9 90.3 112.3 85.3C112.4 83.1 114.1 82.2 116.3 82.7C117.2 82.9 118 83.4 118.7 83.7C119.5 84 120.1 84.5 121.1 85C121.2 83.7 121.2 82.8 121.3 81.8C121.4 80.5 121.4 79.2 121.9 78C122.6 75.9 124.9 75 126.6 76.2C128.9 78 131 80.1 133.1 82.3C133.5 82.9 133.4 84.5 132.9 85.1ZM192 35.3C192.7 35.3 193.3 36.2 194.6 37.1C193.3 38 192.5 38.9 191.7 38.8C191.1 38.8 190.2 37.7 190.2 37C190.2 36.4 191.3 35.4 192 35.3ZM136.1 62.3C136.8 61.6 137.3 60.7 138 60.6C138.7 60.6 139.4 61.5 140.6 62.3C139.5 63.2 138.7 64.2 138.2 64.1C137.4 64 136.8 63 136.1 62.3ZM149 76C148.2 77.1 147 76.6 146.2 75.7C145.3 75.1 144.8 74.5 143.9 73.5C143.6 75.7 143.5 77.4 143.2 79C143 80.3 142.4 81.5 140.9 81.2C139.4 81 139 79.8 139.2 78.4C139.4 76.3 139.6 74.3 140 72.2C140.3 70.5 141 68.7 142.9 68.6C144.2 68.6 145.5 69.6 146.8 70.4C147.8 71.1 148.6 72.2 149.1 73.2C149.4 73.9 149.4 75.3 149 76ZM166.3 69.2C163.9 70.5 161.2 71.5 159.9 72C154.1 71.9 152.1 70.3 151.3 66.2C150.5 61.6 152.3 57.3 155.8 56.1C156.6 55.9 158 56.2 158.6 56.9C159.5 57.9 158.6 58.8 157.6 59.6C155.1 61.4 154.3 63.4 155.4 66.3C155.7 67 156.7 67.9 157.4 67.9C158.8 68 160.2 67.6 161.6 67.2C162.6 66.9 163.6 66.1 164.6 66C165.4 65.9 166.7 66.3 167.1 67C167.5 67.3 166.9 69 166.3 69.2ZM184.2 60.8C183.6 61.1 182.2 60.7 181.8 60.1C180.7 58.7 179.8 56.9 178.8 55.3C178.5 54.7 177.8 54.4 177.4 54C177 54.6 176.3 55.1 176.2 55.8C175.8 57.2 175.8 58.9 175.4 60.4C175 62.2 175 64.5 172.6 64.9C170.3 65.2 169.3 63.1 168.7 61.3C167 56.5 165.6 51.7 164.1 46.9C163.7 45.7 163.9 44.4 165.2 44C166.6 43.6 167.5 44.4 168 45.8C168.9 48.8 169.8 51.8 170.8 54.8C170.9 55.6 171.1 56.2 171.5 57.1C172.2 55.3 172.6 53.9 173.3 52.5C175.1 49.4 178.5 48.8 180.8 51.4C182.6 53.5 183.9 56 185.2 58.4C185.4 59.1 184.7 60.5 184.2 60.8ZM199 58.6C198.2 58.7 197 57.9 196.6 57.2C195.7 55.8 195.4 54.2 194.6 52C193.7 53.9 193.1 55.2 192.5 56.5C191.9 57.7 191.1 58.6 189.6 57.9C188.2 57.2 188.3 56.1 188.8 55C189.6 53.1 190.2 51.1 191.3 49.5C192 48.4 193.5 47.3 194.6 47.3C195.7 47.3 197.1 48.6 197.7 49.6C198.8 51.5 199.2 53.7 200.1 55.8C200.7 57.2 200.4 58.4 199 58.6ZM224.5 56.9C223 57.9 222 56.7 221.3 55.5C220.7 54.4 220.2 53.6 219.6 52.6C218.6 53.8 218.1 54.7 217.3 55.6C215.9 57.2 214 57.7 211.9 57.2C209.7 56.5 208.4 55 208.2 52.9C207.8 49.2 208.1 45.9 210.8 43C214 39.5 218.4 40.2 220.3 44.6C221.6 47.6 223.2 50.5 224.7 53.5C225.4 54.7 226.1 55.9 224.5 56.9ZM248.5 50.2C247.8 50.3 246.7 49.6 246.1 49.1C245.7 48.7 245.5 47.7 245.2 46.5C244.4 47.7 244.1 49 243.3 49.6C242.4 50.5 241.1 51.7 240.1 51.6C239.1 51.5 238.2 50 237.3 49C237 48.7 237 48.2 236.6 47.3C235.4 49 234.4 50.4 233.3 52C233 52.4 232.6 53.2 232.2 53.4C231.4 53.7 230.3 53.8 229.7 53.5C229.3 53.3 228.9 51.7 229.3 51.3C231.1 48.6 232.8 46 235 43.6C236.5 41.8 238.4 42.6 240.6 45.7C241.4 44.5 241.9 43.2 242.7 42.2C244.4 40.1 247 40.3 248.1 42.8C248.8 44.4 249.4 46.1 249.6 47.8C249.8 48.7 249 50 248.5 50.2ZM267.5 53.7C265.7 54.3 263.9 54.5 262 54.9C256.5 54.8 254.3 51.8 255.8 46.4C256.6 43.4 260.4 41.1 264.6 41.2C268.1 41.2 270.2 43 271.1 46.4C271.9 49.6 270.5 52.6 267.5 53.7ZM287 59.1C286.4 58.9 285.9 58.9 285.3 59C283.8 58.9 282.2 58.8 280.7 58.6C277.8 58.2 275.9 55.5 276.2 52.6C276.8 48.3 280.5 44.2 284.8 43.7C286 43.6 287.4 44 288.7 44.7C289.3 45 289.7 46.4 289.4 46.9C289.2 47.5 288 48 287.3 48C283.7 47.7 281.6 49 280.5 52.5C280.1 53.8 280.4 54.7 281.8 54.8C283.6 54.9 285.3 55 287.1 55.1C288.5 55.1 290 55.4 290 57.2C289.8 58.8 288.4 59.1 287 59.1ZM306.3 63C306.2 63.7 304.9 64.1 304.1 64.6C303.7 63.8 302.7 63 302.7 62.3C302.7 60.3 303.1 58.3 303.5 55.8C302.2 56.7 301.3 57.4 300.4 57.9C299.3 58.6 298.2 58.8 297.3 57.7C296.4 56.5 297 55.5 298.1 54.7C299.4 53.7 300.9 52.6 302.3 51.8C304.9 50.4 307.5 51.6 307.5 54.6C307.4 57.3 306.8 60.2 306.3 63ZM308 44.9C307.2 44.8 306.7 43.8 306 43.1C306.7 42.4 307.1 41.5 307.8 41.4C308.5 41.3 309.2 42.3 310.4 43C309.4 43.9 308.6 45 308 44.9ZM343.4 60.5C340.3 62.7 336.6 64.1 333.2 65.8C331.9 66.5 330.4 66.8 328.6 67.6C330 68.6 330.8 69.4 331.8 69.9C334.9 71.7 338.1 73.2 341.2 74.9C342 75.3 343 75.7 343.4 76.2C343.8 76.8 344.3 78.1 344 78.7C343.7 79.3 342.3 79.7 341.6 79.5C340.3 79.2 339.2 78.4 338 77.7C334.8 75.9 331.5 74.2 328.3 72.4C327.3 71.8 326.5 71 325.9 69.9C324.5 67.9 324.8 65.6 326.9 64.2C328.6 63.2 330.4 62.5 332.3 61.7C334.3 60.9 336.4 60.3 338.4 59.2C339.7 58.6 340.7 57.6 341.8 56.7C340.4 54.2 338.6 53.6 336.3 53.9C334.8 54.1 333.1 54.8 331.6 54.9C330.8 54.9 329.7 54.3 329.2 53.7C329 53.4 329.5 51.9 330 51.6C333.6 49 340.5 49.5 343.8 52.5C346.2 55.3 346.5 58.3 343.4 60.5ZM369.7 84.3C366.6 86.6 363.3 87.5 361 87.6C353.4 87.8 347.8 81.2 349.7 75.3C350.3 73.4 351.8 71.6 353.3 70.3C355.2 68.7 357.5 67.5 359.8 66.5C360.6 66.2 361.8 66.4 362.8 66.6C363.7 66.7 364.5 67.2 365.3 67.4C369.6 68.1 371.9 70.7 373 74.8C374.1 78.8 372.8 81.7 369.7 84.3ZM383.2 101.6C384.9 103.2 386.6 104.5 388.3 106.1C389.3 107 390.2 108.1 389 109.4C387.9 110.5 386.8 110 385.8 109.1C382.3 105.9 378.6 102.7 375.1 99.5C374.4 98.8 373.8 98.1 373.4 97.3C371.6 94.1 373.1 91.5 376.6 90.8C379 90.4 381.3 89.6 383.6 88.9C385 88.5 386.5 87.7 386.5 85.9C386.5 84 385.4 82.8 383.7 81.9C382.9 81.5 381.8 81.2 381.2 80.6C380.6 80.2 380.2 78.8 380.4 78.4C380.7 77.7 381.9 77.1 382.6 77.3C386.3 78.2 389.1 80.4 390.2 84.2C391 86.9 390.3 89.4 387.9 90.9C385.4 92.5 382.4 93.4 379.5 94.5C378.6 94.8 377.6 94.9 376.7 95.2C376.7 95.2 376.6 95.4 376.5 95.6C378.8 97.6 381 99.6 383.2 101.6ZM414.4 117.5H411.4C412.4 119.3 413.4 120.6 413.8 122.1C414.6 124.6 415.2 127.1 415.3 129.6C415.5 132.9 413.5 134.7 410.2 134.9C407.2 135.1 404.5 134.2 402.5 132.2C399.5 129.3 396.9 126 394.1 122.8C393.8 122.4 393.7 121.8 393.4 121.4C393 120.3 393.2 119.2 394.4 118.6C395.7 117.9 396.4 118.8 397 119.7C399 122.5 401 125.3 403.3 127.6C404.6 128.9 406.6 129.9 408.6 130.5C410.7 131.3 411.4 130.5 411.5 128.3C411.5 125.3 410 122.8 408.5 120.4C407.9 119.4 407.2 118.4 407 117.4C406.2 114.7 407.8 112.9 410.5 113.2C412 113.3 413.7 113.3 415.6 113.4C415.2 111.2 414.1 109.8 412.5 108.9C411 107.9 409.2 107.2 407.5 106.4C406.3 105.8 405.3 105.1 406.1 103.5C406.8 102.2 407.9 102.2 409.1 102.7C412.8 104.3 416.5 105.8 418.6 109.7C421 114 419.2 117.2 414.4 117.5Z" fill="#8DE4FF"/>
<path id="Vector_27" fill-rule="evenodd" clip-rule="evenodd" d="M262.1 275.5C248.8 282.3 232.2 275.3 228.5 261.1C227.6 257.5 227.7 253.5 228.2 249.8C228.8 245.8 230.2 242 231 238.1C232 233.1 232.9 228.2 233.9 223.3C235 218 236.2 212.6 237.4 207.1C245.3 210 252.9 209.8 260.6 206.9C262.1 211.4 263.6 215.8 265 220.2C268 229.2 270.6 238.4 273.9 247.3C277.4 256.9 273 270 262.1 275.5Z" fill="#1F1F1F"/>
<path id="Vector_28" fill-rule="evenodd" clip-rule="evenodd" d="M284.5 240.1V246C281.4 245 279.1 243.2 276.9 240.7C279.6 240.4 281.8 240.3 284.5 240.1Z" fill="#FF7003"/>
<path id="Vector_29" fill-rule="evenodd" clip-rule="evenodd" d="M295.2 246.4C292.7 246.6 290.6 246.8 288.2 247.1V239.2C289.2 238.9 290.3 238.4 291.7 238C292.7 240.7 293.8 243.4 295.2 246.4Z" fill="#FF7003"/>
<path id="Vector_30" fill-rule="evenodd" clip-rule="evenodd" d="M302.9 241.1C301.4 242.3 300 243.6 298.4 244.9C297.2 241.9 296.1 239.3 295 236.5C296 236.1 297 235.5 298 234.9C299.6 236.9 301.1 238.8 302.9 241.1Z" fill="#FF7003"/>
<path id="Vector_31" fill-rule="evenodd" clip-rule="evenodd" d="M304.8 237.7C303.5 235.9 302.3 234.5 301.1 232.9C302.9 231 304.4 229.3 306.3 227.3C307 231 306.4 234.3 304.8 237.7Z" fill="#FF7003"/>
<path id="Vector_32" fill-rule="evenodd" clip-rule="evenodd" d="M304 223.1C303.2 225.7 301.5 227.6 299.3 229.5C297 224.7 295.7 220 295.9 214.6C299.5 215.9 302.3 218.3 304.2 221.4C304.3 221.8 304.1 222.6 304 223.1Z" fill="#FF7003"/>
<path id="Vector_33" fill-rule="evenodd" clip-rule="evenodd" d="M296.3 231.7C295.4 232.1 294.6 232.6 293.7 233.1C291.1 226.6 288.5 220.4 285.8 213.8C288 213.7 290 213.5 292.1 213.4C292 220.1 293.5 226 296.3 231.7Z" fill="#FF7003"/>
<path id="Vector_34" fill-rule="evenodd" clip-rule="evenodd" d="M290.1 234.7C289.1 235 288.3 235.4 287.2 235.7C285.4 229.3 282.7 223.8 278.1 218.5C279.4 217.4 280.7 216.4 282.3 215.2C284.9 221.7 287.5 227.7 290 233.8C290 234 290 234.3 290.1 234.7Z" fill="#FF7003"/>
<path id="Vector_35" fill-rule="evenodd" clip-rule="evenodd" d="M283.7 236.5C280.6 236.7 277.8 236.9 275 237.1C272.4 232.8 272.7 225.6 276 221.5C279.7 225.8 282.2 230.7 283.7 236.5Z" fill="#FF7003"/>
<path id="Vector_36" fill-rule="evenodd" clip-rule="evenodd" d="M223.3 243.5C219.9 247.3 214.4 249 208.2 248.1C213.7 245.5 217.3 241.9 220.2 236.6C221.6 238.4 222.8 239.7 223.8 241.3C224 241.7 223.7 243.1 223.3 243.5Z" fill="#03B9E1"/>
<path id="Vector_37" fill-rule="evenodd" clip-rule="evenodd" d="M216.9 235.1C213.7 240.8 209.4 244.6 203.2 245.6C202.6 245.7 202 245.7 201.7 245.4C199.9 243.8 198.2 242.2 196.6 240.7C200.2 239.4 203.6 238.2 206.9 236.9C207.7 236.6 208.6 236.1 209.1 235.5C211.5 232.8 214 233.9 216.9 235.1Z" fill="#EDDC00"/>
<path id="Vector_38" fill-rule="evenodd" clip-rule="evenodd" d="M208.2 231.6C204.8 234.7 200.8 236.2 196.2 236.4C195.1 236.4 194.5 236 194.4 235C194.2 233.7 194.1 232.4 193.8 230.9C199 230.7 203.4 228.9 207.3 226C207.9 227.4 208.3 228.7 208.6 230C208.8 230.5 208.6 231.2 208.2 231.6Z" fill="#03B9E1"/>
<path id="Vector_39" fill-rule="evenodd" clip-rule="evenodd" d="M226.9 238.2C222.4 235.2 220.4 230.8 220.5 225.6C220.5 223 221.2 220.5 221.5 217.5C228.2 221.9 229.8 228.6 226.9 238.2Z" fill="#EDDC00"/>
<path id="Vector_40" fill-rule="evenodd" clip-rule="evenodd" d="M217 231.1C217.1 231.2 216.8 231 216.2 231.1C212.7 231 211.2 228.5 211.1 225.5C211 222.2 211.3 218.7 211.4 215.4C211.5 214.1 212.5 213.6 213.6 214C215.1 214.3 216.8 214.9 218.3 215.3C217.9 218.1 217.1 220.6 216.9 223.2C216.8 225.8 217 228.4 217 231.1Z" fill="#03B9E1"/>
<path id="Vector_41" fill-rule="evenodd" clip-rule="evenodd" d="M207.9 214.4C207.6 216.5 207.5 218.5 207.1 220.6C207.1 221 207 221.5 206.7 221.7C203.3 224.8 199.4 226.8 194.7 227C195.2 221.1 202.6 214.2 207.9 214.4Z" fill="#EDDC00"/>
</g>
<g id="Vector_42_00000158728706934068201150000017600161516210233493_">
<path id="Vector_42" fill-rule="evenodd" clip-rule="evenodd" d="M109.1 101.3C106.5 99.5 103.7 97.7 101.2 95.8C100.5 95.4 100.1 94.4 99.9 93.6C99.5 92.2 98.8 91.6 97.3 91.8C96.5 92 95.5 91.8 94.8 91.5C91.4 89.8 88.2 87.7 84.7 86.3C81.8 85.1 79.6 86.9 79.6 90.1C79.6 91.2 79.8 92.6 80.2 93.7C81.7 98.5 83.3 103.4 85.3 108.1C87.3 112.7 89.7 117 92 121.4C92.7 122.5 93.8 123.5 95.2 122.5C96.6 121.6 96 120.4 95.3 119.2C93.4 115.7 91.7 112.3 89.9 108.7C89.7 108 89.7 106.8 90.1 106.4C92.3 103.7 94.7 101.2 97.3 98.3C100.6 100.5 103.8 102.6 107 104.8C108.2 105.7 109.4 106.2 110.5 104.8C111.3 103 110.2 102.1 109.1 101.3ZM87.1 103.2C85.7 98.7 84.5 94.6 83.1 90.6C83.4 90.4 83.7 90.2 83.9 89.9C87.1 91.7 90.4 93.6 93.9 95.6C91.6 98.2 89.6 100.4 87.1 103.2Z" fill="black"/>
<path id="Vector_43" fill-rule="evenodd" clip-rule="evenodd" d="M93.9 95.6C91.6 98.2 89.6 100.4 87.1 103.2C85.7 98.7 84.5 94.6 83.1 90.6C83.4 90.4 83.7 90.2 83.9 89.9C87.1 91.7 90.4 93.6 93.9 95.6Z" fill="#8DE4FF"/>
</g>
<g id="Vector_43_00000139976800445132695160000013541541724869654402_">
<path id="Vector_44" fill-rule="evenodd" clip-rule="evenodd" d="M414.4 117.5H411.4C412.4 119.3 413.4 120.6 413.8 122.1C414.6 124.6 415.2 127.1 415.3 129.6C415.5 132.9 413.5 134.7 410.2 134.9C407.2 135.1 404.5 134.2 402.5 132.2C399.5 129.3 396.9 126 394.1 122.8C393.8 122.4 393.7 121.8 393.4 121.4C393 120.3 393.2 119.2 394.4 118.6C395.7 117.9 396.4 118.8 397 119.7C399 122.5 401 125.3 403.3 127.6C404.6 128.9 406.6 129.9 408.6 130.5C410.7 131.3 411.4 130.5 411.5 128.3C411.5 125.3 410 122.8 408.5 120.4C407.9 119.4 407.2 118.4 407 117.4C406.2 114.7 407.8 112.9 410.5 113.2C412 113.3 413.7 113.3 415.6 113.4C415.2 111.2 414.1 109.8 412.5 108.9C411 107.9 409.2 107.2 407.5 106.4C406.3 105.8 405.3 105.1 406.1 103.5C406.8 102.2 407.9 102.2 409.1 102.7C412.8 104.3 416.5 105.8 418.6 109.7C421 114 419.2 117.2 414.4 117.5Z" fill="black"/>
</g>
<g id="Vector_44_00000135686038506812836270000004496924083329426308_">
<path id="Vector_45" fill-rule="evenodd" clip-rule="evenodd" d="M373 74.8C371.9 70.8 369.6 68.1 365.3 67.4C364.4 67.2 363.6 66.7 362.8 66.6C361.8 66.4 360.6 66.2 359.8 66.5C357.5 67.5 355.2 68.7 353.3 70.3C351.8 71.6 350.2 73.4 349.7 75.3C347.8 81.2 353.4 87.8 361 87.6C363.3 87.5 366.6 86.6 369.7 84.3C372.8 81.7 374.1 78.8 373 74.8ZM366.9 81.4C363.2 84.5 357.9 84.6 355 81.7C352.5 79.1 352.8 75.8 355.7 73.7C358.7 71.5 359.4 71.2 362.3 71.2C362.6 71.2 363.5 71.3 364.4 71.5C367.4 71.7 368.5 73.7 369.1 76.3C369.7 78.7 368.5 80 366.9 81.4Z" fill="black"/>
<path id="Vector_46" fill-rule="evenodd" clip-rule="evenodd" d="M366.9 81.4C363.2 84.5 357.9 84.6 355 81.7C352.5 79.1 352.8 75.8 355.7 73.7C358.7 71.5 359.4 71.2 362.3 71.2C362.6 71.2 363.5 71.3 364.4 71.5C367.4 71.7 368.5 73.7 369.1 76.3C369.7 78.7 368.5 80 366.9 81.4Z" fill="#8DE4FF"/>
</g>
<g id="Vector_45_00000050636691057810901890000011670991179741366697_">
<path id="Vector_47" fill-rule="evenodd" clip-rule="evenodd" d="M333.1 65.9C331.8 66.6 330.3 66.9 328.5 67.7C329.9 68.7 330.7 69.5 331.7 70C334.8 71.8 338 73.3 341.1 75C341.9 75.4 342.9 75.8 343.3 76.3C343.7 76.9 344.2 78.2 343.9 78.8C343.6 79.4 342.2 79.8 341.5 79.6C340.2 79.3 339.1 78.5 337.9 77.8C334.7 76 331.4 74.3 328.2 72.5C327.2 71.9 326.4 71.1 325.8 70C324.4 68 324.7 65.7 326.8 64.3C328.5 63.3 330.3 62.6 332.2 61.8C334.2 61 336.3 60.4 338.3 59.3C339.6 58.7 340.6 57.7 341.7 56.8C340.3 54.3 338.5 53.7 336.2 54C334.7 54.2 333 54.9 331.5 55C330.7 55 329.6 54.4 329.1 53.8C328.9 53.5 329.4 52 329.9 51.7C333.5 49.1 340.4 49.6 343.7 52.6C346.6 55.2 346.8 58.2 343.7 60.4C340.6 62.6 336.6 64.1 333.1 65.9Z" fill="black"/>
</g>
<g id="Vector_46_00000134965434824608282760000012541286609551569319_">
<path id="Vector_48" fill-rule="evenodd" clip-rule="evenodd" d="M389 109.4C387.9 110.5 386.8 110 385.8 109.1C382.3 105.9 378.6 102.7 375.1 99.5C374.4 98.8 373.8 98.1 373.4 97.3C371.6 94.1 373.1 91.5 376.6 90.8C379 90.4 381.3 89.6 383.6 88.9C385 88.5 386.5 87.7 386.5 85.9C386.5 84 385.4 82.8 383.7 81.9C382.9 81.5 381.8 81.2 381.2 80.6C380.6 80.2 380.2 78.8 380.4 78.4C380.7 77.7 381.9 77.1 382.6 77.3C386.3 78.2 389.1 80.4 390.2 84.2C391 86.9 390.3 89.4 387.9 90.9C385.4 92.5 382.4 93.4 379.5 94.5C378.6 94.8 377.6 94.9 376.7 95.2C376.7 95.2 376.6 95.4 376.5 95.6C378.7 97.7 380.9 99.7 383.1 101.7C384.8 103.3 386.5 104.6 388.2 106.2C389.3 107 390.2 108.1 389 109.4Z" fill="black"/>
</g>
<g id="Vector_47_00000130606084510751972910000008760058459575015331_">
<path id="Vector_49" fill-rule="evenodd" clip-rule="evenodd" d="M132.9 85.1C132.1 86.2 130.9 85.7 130 84.8C128.8 83.5 127.5 82 126.1 80.6C125.2 83.4 125.1 86.3 123.7 88.1C121.6 90.7 119 88.4 116.8 87.4C116.7 87.5 116.5 87.6 116.2 87.7C116.9 90 117.5 92.4 118.2 94.7C118.5 95.6 119.2 96.5 119.2 97.4C119.2 98.2 118.9 99.4 118.2 99.7C117.6 100 116.1 99.6 115.8 99C113.6 94.8 111.9 90.3 112.3 85.3C112.4 83.1 114.1 82.2 116.3 82.7C117.2 82.9 118 83.4 118.7 83.7C119.5 84 120.1 84.5 121.1 85C121.2 83.7 121.2 82.8 121.3 81.8C121.4 80.5 121.4 79.2 121.9 78C122.6 75.9 124.9 75 126.6 76.2C128.9 78 131 80.1 133.1 82.3C133.5 82.9 133.4 84.5 132.9 85.1Z" fill="black"/>
</g>
<g id="Vector_48_00000062194158342050498890000002646585797203600825_">
<path id="Vector_50" fill-rule="evenodd" clip-rule="evenodd" d="M184.2 60.8C183.6 61.1 182.2 60.7 181.8 60.1C180.7 58.7 179.8 56.9 178.8 55.3C178.5 54.7 177.8 54.4 177.4 54C177 54.6 176.3 55.1 176.2 55.8C175.8 57.2 175.8 58.9 175.4 60.4C175 62.2 175 64.5 172.6 64.9C170.3 65.2 169.3 63.1 168.7 61.3C167 56.5 165.6 51.7 164.1 46.9C163.7 45.7 163.9 44.4 165.2 44C166.6 43.6 167.5 44.4 168 45.8C168.9 48.8 169.8 51.8 170.8 54.8C170.9 55.6 171.1 56.2 171.5 57.1C172.2 55.3 172.6 53.9 173.3 52.5C175.1 49.4 178.5 48.8 180.8 51.4C182.6 53.5 183.9 56 185.2 58.4C185.4 59.1 184.7 60.5 184.2 60.8Z" fill="black"/>
</g>
<g id="Vector_49_00000039854097192326999010000004126167585115954078_">
<path id="Vector_51" fill-rule="evenodd" clip-rule="evenodd" d="M224.7 53.4C223.2 50.4 221.6 47.5 220.3 44.5C218.4 40.2 214 39.5 210.8 42.9C208 45.8 207.7 49.1 208.2 52.8C208.4 54.9 209.7 56.5 211.9 57.1C214 57.7 215.9 57.1 217.3 55.5C218.1 54.6 218.6 53.7 219.6 52.5C220.2 53.5 220.7 54.3 221.3 55.4C222 56.6 223 57.9 224.5 56.8C226.1 55.9 225.4 54.7 224.7 53.4ZM216.3 46.8C216 48.6 215.5 50.4 214.9 52.1C214.8 52.7 213.9 53 213 53.7C212.6 50.7 211.9 48.2 213.4 46C214 45.4 214.8 45.1 215.5 44.7C215.8 45.5 216.4 46.1 216.3 46.8Z" fill="black"/>
<path id="Vector_52" fill-rule="evenodd" clip-rule="evenodd" d="M216.3 46.8C216 48.6 215.5 50.4 214.9 52.1C214.8 52.7 213.9 53 213 53.7C212.6 50.7 211.9 48.2 213.4 46C214 45.4 214.8 45.1 215.5 44.7C215.8 45.5 216.4 46.1 216.3 46.8Z" fill="#8DE4FF"/>
</g>
<g id="Vector_50_00000142854864673237769910000010306771955626900922_">
<path id="Vector_53" fill-rule="evenodd" clip-rule="evenodd" d="M271.2 46.5C270.3 43 268.2 41.3 264.7 41.3C260.5 41.2 256.7 43.5 255.9 46.5C254.4 51.8 256.6 54.9 262.1 55C264 54.6 265.8 54.3 267.6 53.8C270.5 52.6 271.9 49.6 271.2 46.5ZM265.2 50.3C264.2 50.4 263.2 50.6 262.2 50.7C262 50.8 262 50.9 261.9 51C261 50.4 259.7 50.1 259.4 49.3C258.8 48 260.2 46.2 261.6 45.8C262.5 45.6 263.3 45.1 264.1 45C265.9 44.8 267.1 45.8 267.4 47.3C267.7 49.3 266.6 49.9 265.2 50.3Z" fill="black"/>
<path id="Vector_54" fill-rule="evenodd" clip-rule="evenodd" d="M265.2 50.3C264.2 50.4 263.2 50.6 262.2 50.7C262 50.8 262 50.9 261.9 51C261 50.4 259.7 50.1 259.4 49.3C258.8 48 260.2 46.2 261.6 45.8C262.5 45.6 263.3 45.1 264.1 45C265.9 44.8 267.1 45.8 267.4 47.3C267.7 49.3 266.6 49.9 265.2 50.3Z" fill="#8DE4FF"/>
</g>
<g id="Vector_51_00000079462065214093319530000017149049606229953156_">
<path id="Vector_55" fill-rule="evenodd" clip-rule="evenodd" d="M248.5 50.2C247.8 50.3 246.7 49.6 246.1 49.1C245.7 48.7 245.5 47.7 245.2 46.5C244.4 47.7 244.1 49 243.3 49.6C242.4 50.5 241.1 51.7 240.1 51.6C239.1 51.5 238.2 50 237.3 49C237 48.7 237 48.2 236.6 47.3C235.4 49 234.4 50.4 233.3 52C233 52.4 232.6 53.2 232.2 53.4C231.4 53.7 230.3 53.8 229.7 53.5C229.3 53.3 228.9 51.7 229.3 51.3C231.1 48.6 232.8 46 235 43.6C236.5 41.8 238.4 42.6 240.6 45.7C241.4 44.5 241.9 43.2 242.7 42.2C244.4 40.1 247 40.3 248.1 42.8C248.8 44.4 249.4 46.1 249.6 47.8C249.8 48.7 249 50 248.5 50.2Z" fill="black"/>
</g>
<g id="Vector_52_00000167372591734034274720000011929271232499069116_">
<path id="Vector_56" fill-rule="evenodd" clip-rule="evenodd" d="M289.9 57.2C289.8 58.9 288.5 59.1 287 59.1C286.4 58.9 285.9 58.9 285.3 59C283.8 58.9 282.2 58.8 280.7 58.6C277.8 58.2 275.9 55.5 276.2 52.6C276.8 48.3 280.5 44.2 284.8 43.7C286 43.6 287.4 44 288.7 44.7C289.3 45 289.7 46.4 289.4 46.9C289.2 47.5 288 48 287.3 48C283.7 47.7 281.6 49 280.5 52.5C280.1 53.8 280.4 54.7 281.8 54.8C283.6 54.9 285.3 55 287.1 55.1C288.4 55.1 289.9 55.4 289.9 57.2Z" fill="black"/>
</g>
<g id="Vector_53_00000183961524945123291310000012462968187011611317_">
<path id="Vector_57" fill-rule="evenodd" clip-rule="evenodd" d="M166.3 69.2C163.9 70.5 161.2 71.5 159.9 72C154.1 71.9 152.1 70.3 151.3 66.2C150.5 61.6 152.3 57.3 155.8 56.1C156.6 55.9 158 56.2 158.6 56.9C159.5 57.9 158.6 58.8 157.6 59.6C155.1 61.4 154.3 63.4 155.4 66.3C155.7 67 156.7 67.9 157.4 67.9C158.8 68 160.2 67.6 161.6 67.2C162.6 66.9 163.6 66.1 164.6 66C165.4 65.9 166.7 66.3 167.1 67C167.5 67.3 166.9 69 166.3 69.2Z" fill="black"/>
</g>
<g id="Vector_54_00000003102944499253149980000016275052677816159927_">
<path id="Vector_58" fill-rule="evenodd" clip-rule="evenodd" d="M199 58.6C198.2 58.7 197 57.9 196.6 57.2C195.7 55.8 195.4 54.2 194.6 52C193.7 53.9 193.1 55.2 192.5 56.5C191.9 57.7 191.1 58.6 189.6 57.9C188.2 57.2 188.3 56.1 188.8 55C189.6 53.1 190.2 51.1 191.3 49.5C192 48.4 193.5 47.3 194.6 47.3C195.7 47.3 197.1 48.6 197.7 49.6C198.8 51.5 199.2 53.7 200.1 55.8C200.7 57.2 200.4 58.4 199 58.6Z" fill="black"/>
</g>
<g id="Vector_55_00000072984259586254646770000005399636333228911031_">
<path id="Vector_59" fill-rule="evenodd" clip-rule="evenodd" d="M307.4 54.5C307.4 57.3 306.8 60.2 306.3 63C306.2 63.7 304.9 64.1 304.1 64.6C303.7 63.8 302.7 63 302.7 62.3C302.7 60.3 303.1 58.3 303.5 55.8C302.2 56.7 301.3 57.4 300.4 57.9C299.3 58.6 298.2 58.8 297.3 57.7C296.4 56.5 297 55.5 298.1 54.7C299.4 53.7 300.9 52.6 302.3 51.8C304.8 50.3 307.4 51.5 307.4 54.5Z" fill="black"/>
</g>
<g id="Vector_56_00000034799998098616148700000001301774827877288108_">
<path id="Vector_60" fill-rule="evenodd" clip-rule="evenodd" d="M149 76C148.2 77.1 147 76.6 146.2 75.7C145.3 75.1 144.8 74.5 143.9 73.5C143.6 75.7 143.5 77.4 143.2 79C143 80.3 142.4 81.5 140.9 81.2C139.4 81 139 79.8 139.2 78.4C139.4 76.3 139.6 74.3 140 72.2C140.3 70.5 141 68.7 142.9 68.6C144.2 68.6 145.5 69.6 146.8 70.4C147.8 71.1 148.6 72.2 149.1 73.2C149.4 73.9 149.4 75.3 149 76Z" fill="black"/>
</g>
<g id="Vector_57_00000139277782873673878770000018312569257924739231_">
<path id="Vector_61" fill-rule="evenodd" clip-rule="evenodd" d="M140.6 62.3C139.5 63.2 138.7 64.2 138.2 64.1C137.4 64 136.9 63 136.1 62.3C136.8 61.6 137.3 60.7 138 60.6C138.6 60.6 139.4 61.5 140.6 62.3Z" fill="black"/>
</g>
<g id="Vector_58_00000090268661059797241120000017708757379328774534_">
<path id="Vector_62" fill-rule="evenodd" clip-rule="evenodd" d="M194.6 37.1C193.3 38 192.5 38.9 191.7 38.8C191.1 38.8 190.2 37.7 190.2 37C190.2 36.4 191.3 35.4 192 35.3C192.7 35.3 193.3 36.2 194.6 37.1Z" fill="black"/>
</g>
<g id="Vector_59_00000090977468876499509460000002396926725882825145_">
<path id="Vector_63" fill-rule="evenodd" clip-rule="evenodd" d="M310.5 43C309.4 43.9 308.6 45 308.1 44.9C307.3 44.8 306.8 43.8 306.1 43.1C306.8 42.4 307.2 41.5 307.9 41.4C308.5 41.3 309.2 42.3 310.5 43Z" fill="black"/>
</g>
<g id="Vector_60_00000183928286224158535080000009803309573771095975_">
<path id="Vector_64" fill-rule="evenodd" clip-rule="evenodd" d="M204 92.6C200.4 90.9 195.7 93.2 195.2 97.3C194.2 103.9 193.3 110.6 193.2 117.1C192.9 128.6 193.1 140.1 193.1 151.4C193.2 151.4 193.3 151.4 193.5 151.5C193.5 158.9 193.3 166.2 193.5 173.6C193.7 180.5 194.2 187.4 194.8 194.3C195.2 198.4 196.9 202.1 201 204C203.5 205.2 205.6 204 205.7 201.1C205.9 196 206.3 191 206.4 185.9C206.7 164.7 207 143.6 207.3 122.4C207.4 114.9 207.6 107.5 207.6 100.1C207.6 97.2 207.2 94.1 204 92.6ZM203.2 165.7C203.1 175.7 202.8 185.8 202.4 195.9C202.3 197.3 202.1 198.8 202 200.6C199.7 198.7 198.6 196.5 198.4 194C197.8 188.7 197.3 183.4 197.2 178.1C196.9 163.6 196.4 149.2 196.5 134.7C196.6 123.8 197.4 113 197.9 102C198 100.6 198.3 99.2 198.7 97.8C199 96.1 200.4 95.7 201.8 95.7C203.2 95.7 203.5 96.9 203.6 98C203.8 99.8 203.8 101.6 203.8 103.3C203.6 124.1 203.4 145 203.2 165.7Z" fill="black"/>
<path id="Vector_65" fill-rule="evenodd" clip-rule="evenodd" d="M203.8 103.4C203.6 124.1 203.5 145 203.2 165.7C203.1 175.7 202.8 185.8 202.4 195.9C202.3 197.3 202.1 198.8 202 200.6C199.7 198.7 198.6 196.5 198.4 194C197.8 188.7 197.3 183.4 197.2 178.1C196.9 163.6 196.4 149.2 196.5 134.7C196.6 123.8 197.4 113 197.9 102C198 100.6 198.3 99.2 198.7 97.8C199 96.1 200.4 95.7 201.8 95.7C203.2 95.7 203.5 96.9 203.6 98C203.8 99.9 203.8 101.6 203.8 103.4Z" fill="#D50004"/>
</g>
<g id="Vector_61_00000102513454830752619410000010376521094906451628_">
<path id="Vector_66" fill-rule="evenodd" clip-rule="evenodd" d="M346.8 123.9C346.5 119.6 345 115.5 342.4 112C341.1 110.3 339.4 109.1 337.1 109.5C334.9 109.9 334.2 112 333.9 113.8C333 118.4 332 122.9 331.4 127.6C329 143.4 326.7 159.3 324.2 175.2C322.9 183.8 321.6 192.4 320.2 200.9C319.6 204.1 319.3 207.5 321.1 210.6C323.3 214.4 329 216.3 332 211.6C332.6 210.7 333.2 209.8 333.7 208.8C338.1 200 341.1 190.6 343.5 181.2C346.8 168.3 347.4 155.1 347.8 141.9C347.4 135.9 347.1 129.7 346.8 123.9ZM341.4 173.3C339.4 184.7 335.8 195.5 331.1 206C330.5 207.3 329.8 208.5 329 209.6C327.9 211.3 326.2 211.5 325.1 209.9C324.2 208.6 323.3 206.7 323.6 205.1C325.8 188.8 328.1 172.4 330.5 156.2C332.5 142.8 334.7 129.5 336.9 116.1C337.1 115.1 337.5 114.1 337.9 112.3C339.1 113.7 340 114.6 340.5 115.6C342.5 118.9 343.1 122.7 343.4 126.5C344.4 142.1 344.1 157.8 341.4 173.3Z" fill="black"/>
<path id="Vector_67" fill-rule="evenodd" clip-rule="evenodd" d="M341.4 173.3C339.4 184.7 335.8 195.5 331.1 206C330.5 207.3 329.8 208.5 329 209.6C327.9 211.3 326.2 211.5 325.1 209.9C324.2 208.6 323.3 206.7 323.6 205.1C325.8 188.8 328.1 172.4 330.5 156.2C332.5 142.8 334.7 129.5 336.9 116.1C337.1 115.1 337.5 114.1 337.9 112.3C339.1 113.7 340 114.6 340.5 115.6C342.5 118.9 343.1 122.7 343.4 126.5C344.4 142.1 344.1 157.8 341.4 173.3Z" fill="#D50004"/>
</g>
<g id="Vector_62_00000013163469598471696200000011079933467706933183_">
<path id="Vector_68" fill-rule="evenodd" clip-rule="evenodd" d="M189.7 179.9C190.1 185.7 190.4 191.5 190.5 197.3C190.5 198.6 190.2 200.2 189.6 201.4C188.5 204.2 186.2 204.7 183.9 202.7C180.2 199.5 178 195.3 176.7 190.7C171.6 171.9 170.5 152.8 172.7 133.4C174 121.7 176.3 110.2 179.5 99C179.8 97.9 180.3 96.5 181.6 97.2C182.2 97.4 182.7 99.1 182.5 99.9C181 106.7 179 113.5 177.8 120.3C174.8 137.6 173.5 155 176.3 172.3C177.3 178.8 178.8 185.1 180.4 191.5C181.3 194.5 183.2 197.3 186.1 200C186.4 198.6 187 197.4 186.9 196.3C186.8 190.3 186.3 184.4 186.2 178.4C186.1 173.1 186.1 167.8 186 162.5C185.9 154.3 185.6 146 185.9 137.8C186.1 129.3 187.1 120.9 187.6 112.4C187.8 108.5 187.7 104.6 187.8 100.8C187.8 99.8 187.7 98.8 188.1 98C188.4 97.3 189.4 96.9 190.1 96.3C190.7 97.1 191.6 97.9 191.6 98.5C191.3 106.1 190.8 113.7 190.4 121.1C189.2 140.6 188.3 160.3 189.7 179.9Z" fill="black"/>
</g>
<g id="Vector_63_00000090268760740374874220000011596861425893669763_">
<path id="Vector_69" fill-rule="evenodd" clip-rule="evenodd" d="M215.8 121C219.3 118.4 221.3 114.6 222.7 110.6C224.1 106.4 221.9 98.3 215.9 97.1C213.6 96.7 212.3 97.2 212 99.6C211.1 108.6 209.8 117.5 209.6 126.5C209.3 141.2 209.6 155.9 209.8 170.6C209.9 180.2 210.4 189.8 210.7 199.4C210.7 200.7 211 202 212.6 202C214 202 214.3 200.7 214.3 199.4C214.3 197.6 214.2 195.8 214.2 194.1C213.8 176 213.2 158 212.8 139.8V132.6H213.5C213.7 133.4 213.9 134.3 214.1 135.2C215.1 141.8 216 148.2 217 154.8C217.2 156 217.6 157.4 219.2 157.1C220.7 156.9 220.7 155.5 220.6 154.3C220.6 154.1 220.5 153.7 220.5 153.5C218.7 143.6 217.1 133.7 215.4 123.7C215.1 122.8 214.6 121.9 215.8 121ZM214.3 117.6C214.1 117.6 213.9 117.5 213.6 117.5C214.2 111.9 214.7 106.5 215.3 100.7C218.1 102 219 104.3 219.3 106.6C219.9 111.1 217 114.3 214.3 117.6Z" fill="black"/>
<path id="Vector_70" fill-rule="evenodd" clip-rule="evenodd" d="M214.3 117.6C214.1 117.6 213.9 117.5 213.6 117.5C214.2 111.9 214.7 106.5 215.3 100.7C218.1 102 219 104.3 219.3 106.6C219.9 111.1 217 114.3 214.3 117.6Z" fill="#D50004"/>
</g>
<g id="Vector_64_00000129206898005041494500000015119534170114616484_">
<path id="Vector_71" fill-rule="evenodd" clip-rule="evenodd" d="M309.1 95.2C308.5 95.9 308.1 96.9 307.6 97C304.8 97.6 302.1 97.9 299.3 98.2C296.2 98.5 296.1 98.5 295.8 101.5C294.3 115.5 292.7 129.6 291.2 143.7C291.1 144.9 291.5 145.3 292.6 145.4C293.6 145.4 294.6 145.3 295.5 145.6C296.3 145.9 296.9 146.7 297.6 147.3C296.8 147.9 296.2 148.7 295.4 148.9C294.4 149.1 293.2 148.8 292.2 148.9C291.6 149 290.8 149.7 290.8 150.2C289.9 161.9 289 173.7 288.3 185.4C288.1 188.6 288.1 191.9 287.7 195C287.6 196.6 287.9 197.2 289.5 197.5C291.3 197.8 292.9 198.3 294.7 198.8C295.8 199.1 296.9 199.6 296.5 201C296.2 202.3 295.1 202.4 293.9 202.1C291.3 201.4 288.6 200.8 286 200.2C284.6 199.9 284.1 199.1 284.1 197.6C284.2 195.4 284.3 193.1 284.4 190.8C284.1 190.9 284.1 190.9 284 190.9C285.1 176.7 286 162.7 287.3 148.6C288.3 137.3 289.7 126 290.9 114.7C291.6 109.1 292.1 103.4 292.7 97.9C292.8 96.2 293.5 95.4 295.1 95.2C298.7 94.8 302.4 94.2 306 93.6C306.4 93.6 306.9 93.4 307.2 93.6C307.8 94.2 308.5 94.7 309.1 95.2Z" fill="black"/>
</g>
<g id="Vector_65_00000117646230731015012680000000534203748909830289_">
<path id="Vector_72" fill-rule="evenodd" clip-rule="evenodd" d="M316.4 209.4C315.6 209.6 314.6 209.7 314 209.5C310.8 208.3 307.7 206.9 304.5 205.7C303.7 205.4 303 205.1 302.1 205.1C300 205.2 299.6 204 299.6 202.2V196.3C300.7 187.2 301.5 177.9 302.8 168.7C306 145.9 309.3 123 312.6 100.2C312.8 98.4 313 96.6 313.4 95C313.6 93.8 314.1 92.7 315.6 92.9C317 93.1 317.1 94.3 316.9 95.5C315.9 102.3 314.9 109 313.9 115.7C311.8 130.5 309.5 145.2 307.5 159.9C306.1 170.5 304.9 181.1 303.6 191.8C303.3 194.5 303.5 197.3 303.3 199.9C303.2 201.1 303.6 201.7 304.8 202.1C308.3 203.4 311.7 204.9 315.1 206.3C315.9 206.6 316.4 207.4 316.9 208.1C317.1 208.3 316.7 209.3 316.4 209.4Z" fill="black"/>
</g>
<g id="Vector_66_00000136406303721221989830000009119799121532463274_">
<path id="Vector_73" fill-rule="evenodd" clip-rule="evenodd" d="M176 101.3C176 101.4 175.7 101.6 175.6 101.6C165.5 105.8 161.2 114.6 158.1 124.2C154.4 136.1 154 148.3 155.7 160.5C157.1 171.4 160.1 182 165.8 191.5C168.3 195.6 171.7 199.2 174.7 203.1C175 203.5 175.7 203.9 175.7 204.3C175.8 205 175.8 205.9 175.4 206.3C175.1 206.6 174.1 206.7 173.5 206.5C172.8 206.3 172.3 205.7 171.7 205.2C164.5 198.4 159.9 189.9 156.7 180.7C150.3 162.2 148.9 143.4 154.2 124.3C156.3 116.6 159.5 109.5 165.3 103.9C167.5 101.8 170.3 100.3 172.8 98.7C173.4 98.6 174 98.5 175 98.1C175.4 98.4 176.2 98.9 176.4 99.4C176.6 100 176.3 100.7 176 101.3Z" fill="black"/>
</g>
<g id="Vector_67_00000178915504491033304310000009726151135026872977_">
<path id="Vector_74" fill-rule="evenodd" clip-rule="evenodd" d="M246.3 113.9C245.5 121.6 244.9 129.2 244.1 136.9C244 137.9 243.2 139.4 242.6 139.5C241.1 139.8 240.8 138.4 240.4 137.2C238.6 131.5 236.9 125.8 235.1 120.1C235.1 120.2 235 120.2 234.9 120.2C234.3 126.8 233.7 133.5 233.1 140.1C233.1 140.8 233.1 141.5 232.8 142.1C232.4 142.9 231.5 143.4 230.9 144C230.5 143.2 229.5 142.4 229.5 141.7C229.5 139.4 229.7 136.9 229.9 134.6C230.8 126 231.7 117.4 232.5 108.9C232.6 108.1 232.5 107.5 232.5 106.7C232.5 105.3 233.3 104.2 234.7 104.4C236.1 104.4 236.1 105.5 236.5 106.7C237.9 113.3 239.4 119.9 240.8 126.3C240.8 126.4 241 126.4 241.2 126.6C241.8 122.1 242.3 117.9 242.7 113.6C242.8 112.3 243.1 110.9 244.7 111C246.5 111 246.4 112.6 246.3 113.9Z" fill="black"/>
</g>
<g id="Vector_68_00000101064471347373776320000017431401838727389076_">
<path id="Vector_75" fill-rule="evenodd" clip-rule="evenodd" d="M287.8 99.4C286.5 113.9 285 128.4 283.8 143C283.5 146.7 283.6 150.5 283.5 154.3C283.5 155.5 283.4 156.8 281.7 156.8C280.3 156.8 280.2 155.5 280.2 154.3V145.9C280.1 145.8 280 145.8 280 145.8C281.1 134.3 282.1 122.8 283.2 111.4C283.5 107.7 284 103.9 284.3 100.3C284.3 99.9 284.3 99.5 284.4 99.1C284.6 97.9 284.6 96.1 286.4 96.3C288.2 96.3 287.9 98 287.8 99.4Z" fill="black"/>
</g>
<g id="Vector_69_00000098928978191271659930000004834074297334745753_">
<path id="Vector_76" fill-rule="evenodd" clip-rule="evenodd" d="M277 102.9C271.9 110 270.5 118.2 270.2 126.6C270.1 132.1 271.3 137.2 274.2 142C275.1 143.4 276 144.9 276.5 146.5C276.7 147.2 276.2 148.2 275.9 149C275.1 148.7 273.9 148.7 273.5 148.1C269.6 141.5 266.1 134.7 266.7 126.6C267.1 117.6 268.6 108.8 274.1 101.2C275 100.1 275.5 98.1 277.4 99.3C279.1 100.3 277.9 101.7 277 102.9Z" fill="black"/>
</g>
<g id="Vector_70_00000101790069093465271890000009223478568935499908_">
<path id="Vector_77" fill-rule="evenodd" clip-rule="evenodd" d="M229.8 103.4C229.7 105.5 229.1 107.7 229 109.9C228 119.6 227.1 129.3 226.2 139C225.9 142 225.8 144.9 225.4 147.9C225.3 149.2 225.2 150.7 223.3 150.5C221.6 150.3 221.8 148.8 221.9 147.6V146.8C221.9 146.9 221.8 146.9 221.6 146.8C223.1 132.6 224.6 118.4 226.1 104.2C226.1 103.6 226.1 103 226.4 102.6C227 102 227.8 101.3 228.5 101.5C229.1 101.6 229.9 102.9 229.8 103.4Z" fill="black"/>
</g>
<g id="Vector_71_00000067224426425937265560000011612854179944443834_">
<path id="Vector_78" fill-rule="evenodd" clip-rule="evenodd" d="M267.1 142.5C266.3 142.8 265.3 143.5 264.7 143.3C262.8 142.9 261.1 141.9 259.2 141.3C257.5 140.7 256.8 139.7 256.9 138C257.2 129.3 257.5 120.6 257.8 111.9C257.8 110.5 257.8 108.4 259.9 108.7C262 108.8 261.4 110.7 261.1 112C261 119.9 260.8 127.9 260.5 135.8C260.5 137.4 260.9 138.1 262.4 138.6C263.7 139 265.2 139.5 266.3 140.3C266.8 140.6 266.9 141.8 267.1 142.5Z" fill="black"/>
</g>
<g id="Vector_72_00000047755944659965738210000001234217046826710683_">
<path id="Vector_79" fill-rule="evenodd" clip-rule="evenodd" d="M253 137.4C253.8 137.7 254.4 138.4 255.1 139C254.5 139.7 254.1 140.3 253.4 140.8C253.1 141.1 252.3 141 251.9 141C247.2 141.1 246.7 140.9 247.1 136.1C247.4 130.5 247.9 125 248.2 119.4C248.3 118.3 248.3 117.2 248.1 116.2C247.7 114.5 248.3 113.6 249.9 113.4C251.3 113.3 252.8 113.1 254.2 113.4C255 113.5 255.5 114.7 256.1 115.4C255.4 115.8 254.7 116.5 253.9 116.8C253.2 117.1 252.6 117 251.8 117C251.7 119.3 251.6 121.5 251.6 123.7C251.6 124 252 124.6 252.5 124.8C253.9 125.9 253.9 126.9 252.5 128C251.9 128.4 251.4 129.1 251.3 129.8C251 132.3 250.9 134.6 250.6 137.4C251.4 137.4 252.3 137.2 253 137.4Z" fill="black"/>
</g>
<g id="Vector_73_00000101785316204176672770000017098596790545535666_">
<path id="Vector_80" fill-rule="evenodd" clip-rule="evenodd" d="M259.4 467.2C257.1 460.5 254.8 453.8 252.6 447.1C251.4 443.5 250.2 439.9 249.1 436.6C251.7 434.9 254.2 433.7 256 432C259.4 428.8 259.1 423.4 255.4 420.3C252.5 417.7 249.1 417 245.4 417.1C243 417.2 242.5 417.5 242.5 420C242.6 435.8 242.6 451.5 242.6 467.4C242.6 468 242.4 468.7 242.7 469.2C243 469.9 243.8 470.6 244.5 470.6C245.2 470.6 245.8 469.7 246.3 469C246.4 468.7 246.3 468 246.3 467.6V443.6C246.3 443 246.4 442.4 246.4 441.7C247.1 442.1 247.3 442.7 247.5 443.4C250.4 451.6 253.1 459.9 256 468.3C256.4 469.5 257 470.6 258.5 470.2C260 469.7 259.8 468.4 259.4 467.2ZM246.5 432.6V420.8C250.7 420.5 254.5 422.9 254.8 426.1C254.9 429.5 250.9 432.6 246.5 432.6Z" fill="black"/>
<path id="Vector_81" fill-rule="evenodd" clip-rule="evenodd" d="M254.8 426.2C254.9 429.5 250.9 432.7 246.5 432.7V420.9C250.7 420.5 254.5 422.9 254.8 426.2Z" fill="#098407"/>
</g>
<g id="Vector_74_00000099662805559673359220000013467164357918759356_">
<path id="Vector_82" fill-rule="evenodd" clip-rule="evenodd" d="M299.7 418.9V436.6C301.7 436.4 303.4 436.2 305.2 435.9C306.5 435.8 307.8 435.8 308.1 437.3C308.3 438.9 307 439.1 305.8 439.3C304.3 439.5 302.7 439.7 301.2 439.9C300.2 440 299.8 440.2 299.8 441.3V460.2C302.8 459.5 305.6 458.8 308.4 458.1C309.2 458 309.8 457.4 310.6 457.7C311.6 457.8 312.9 458.1 313.2 458.9C313.9 460.2 312.6 460.8 311.4 461C307.9 461.9 304.2 462.8 300.7 463.7C296 464.9 296 465 296.1 460.1C296.1 453.1 296 445.9 296 438.9V418.1C296 416.2 296.9 415.3 298.8 415.4C303.3 415.7 307.8 416 312.2 416.4C313 416.5 314.4 417.5 314.4 418.2C314.5 419.6 313.1 419.9 311.9 419.8C307.7 419.5 303.9 419.3 299.7 418.9Z" fill="black"/>
</g>
<g id="Vector_75_2">
<path id="Vector_83" fill-rule="evenodd" clip-rule="evenodd" d="M180.1 433.1C178.6 429 175.7 425.7 171.2 424.5C168 423.7 166.9 424.6 166.9 427.8C166.9 438.2 167 448.5 167 459V460C167 461.8 167.8 462.6 169.5 462.5C172.1 462.5 174.2 461.4 176.1 459.7C180.7 455.5 182 449.9 182.5 442.3C182 440.2 181.5 436.5 180.1 433.1ZM170.9 458.8V428.5C174.8 429.1 178.2 434.7 178.8 442C179.5 449.3 176 457 170.9 458.8Z" fill="black"/>
<path id="Vector_84" fill-rule="evenodd" clip-rule="evenodd" d="M170.9 458.8V428.5C174.8 429.1 178.2 434.7 178.8 442C179.5 449.3 176 457 170.9 458.8Z" fill="#098407"/>
</g>
<g id="Vector_76_2">
<path id="Vector_85" fill-rule="evenodd" clip-rule="evenodd" d="M292.8 417.9C292.8 419.9 291 419.6 289.7 419.6H278.8V466.7C278.8 467.9 278.5 468.9 277 469C275.5 469 275 468 275 466.7C275 461.4 274.9 455.9 274.9 450.5V421.7C274.9 420 274.5 419.5 272.7 419.5C269.2 419.6 265.7 419.5 262 419.5C261.3 419.5 260.6 419.5 260 419.3C259.6 419.1 259 418.3 258.9 417.9C258.9 417.5 259.5 416.8 259.9 416.6C260.6 416.3 261.3 416.3 262.1 416.3C271.1 416.3 280 416.3 289.1 416.2H289.5C291 416.2 292.7 416 292.8 417.9Z" fill="black"/>
</g>
<g id="Vector_77_2">
<path id="Vector_86" fill-rule="evenodd" clip-rule="evenodd" d="M225.2 422.9C225.3 427.6 225.3 432.1 225.2 436.8C225.2 438.1 225.8 438.6 227 438.6C228 438.5 229.1 438.4 230 438.7C230.7 438.9 231.1 439.8 231.8 440.4C231.2 441 230.7 441.8 230 442C228.7 442.2 227.2 442 225.6 442C225.5 442.8 225.5 443.4 225.5 444V464.1C225.5 465.8 225.9 466.4 227.7 466.4C229.8 466.5 231.8 466.5 233.8 467C234.7 467.1 235.3 468.1 236.1 468.8C235.2 469.2 234.4 470.2 233.6 470.2C230.4 470.2 227.2 469.9 224 469.5C222.5 469.4 221.8 468.5 221.8 466.9V421.9C221.8 418.3 220.8 417.6 226.1 417.3C229 417.2 231.8 417 234.7 416.9C235.9 416.9 237.2 416.8 237.3 418.5C237.4 420.1 236.2 420.3 234.9 420.4C232.4 420.5 229.8 420.7 227.3 420.8C225.7 420.8 225.2 421.5 225.2 422.9Z" fill="black"/>
</g>
<g id="Vector_78_2">
<path id="Vector_87" fill-rule="evenodd" clip-rule="evenodd" d="M212.8 421C210.4 419.4 207.6 418.8 204.7 418.8C202.1 418.8 201.6 419.1 201.6 421.8V444.1C201.6 451.8 201.6 459.4 201.7 466.9C201.7 468.2 202.1 469.2 203.6 469.2C204.9 469.2 205.4 468.3 205.4 467V466.6C205.4 457.8 205.4 448.9 205.3 440.1C205.3 438.5 205.7 438 207.3 437.5C209.3 436.9 211.3 436.1 213 434.9C218.2 431.4 218.1 424.5 212.8 421ZM205.4 434.1V422.6C208.8 421.8 212.8 424.4 213.2 427.4C213.7 430.5 209.9 433.7 205.4 434.1Z" fill="black"/>
<path id="Vector_88" fill-rule="evenodd" clip-rule="evenodd" d="M205.4 434.1V422.6C208.8 421.8 212.8 424.4 213.2 427.4C213.7 430.5 209.9 433.7 205.4 434.1Z" fill="#098407"/>
</g>
<g id="Vector_79_2">
<path id="Vector_89" fill-rule="evenodd" clip-rule="evenodd" d="M330.4 450.6C330.4 450.5 330.3 450.4 330.3 450.3C328.5 445.3 327 440.3 325.2 435.4C324.6 434 324.9 433.2 326.2 432.2C330.7 429 330.1 423.2 324.9 421.1C323.6 420.5 322 420.3 320.6 420.1C318.8 419.8 318.1 420.5 318.1 422.3V455.8C318.1 457 318.4 458 319.9 458C321.3 458 321.8 457 321.8 455.8V438C321.9 438 322.1 437.9 322.2 437.9C322.8 439.3 323.3 440.8 323.7 442.2C324.8 445.4 325.9 448.6 327 451.7C327.3 452.9 328 454.2 329.5 453.6C331 453.1 330.9 451.8 330.4 450.6ZM321.8 430.2V423.8C324 424 325.4 425.1 325.5 426.6C325.8 428.3 324.4 429.5 321.8 430.2Z" fill="black"/>
<path id="Vector_90" fill-rule="evenodd" clip-rule="evenodd" d="M321.8 430.2V423.8C324 424 325.4 425.1 325.5 426.6C325.8 428.3 324.4 429.5 321.8 430.2Z" fill="#098407"/>
</g>
<g id="Vector_80_2">
<path id="Vector_91" fill-rule="evenodd" clip-rule="evenodd" d="M344.4 436.4C343.8 435.1 344.1 434.4 345.3 433.5C349.2 430.7 349 425.8 345 423.4C343.5 422.5 341.6 422.1 339.8 421.8C337.5 421.6 336.5 422.7 336.5 424.9V449.5C336.5 450.7 336.9 452.1 338.4 451.7C339.2 451.6 339.9 450.4 340.2 449.5C340.5 448.4 340.3 447 340.3 445.8V437.1C340.5 437.1 340.6 437.1 340.9 437.2C341.5 438.8 342 440.2 342.6 441.8C343.2 443.4 343.7 444.9 344.1 446.5C344.4 447.7 345.3 448.5 346.6 448.1C347.9 447.5 347.9 446.4 347.5 445.3C346.5 442.3 345.5 439.3 344.4 436.4ZM340.4 431.8V425.4C342.8 425.6 344.3 426.8 344.3 428.4C344.3 430.2 342.7 431.5 340.4 431.8Z" fill="black"/>
<path id="Vector_92" fill-rule="evenodd" clip-rule="evenodd" d="M344.3 428.5C344.3 430.2 342.8 431.5 340.4 431.8V425.4C342.8 425.7 344.3 426.9 344.3 428.5Z" fill="#098407"/>
</g>
<g id="Vector_81_2">
<path id="Vector_93" fill-rule="evenodd" clip-rule="evenodd" d="M163.9 429.1C163.1 429.8 162.5 430.8 161.6 430.9C159.7 431.2 157.6 431.3 155.8 431.3C154.5 431.3 153.9 431.7 154 433.1C154.1 435.1 154.1 437 154 439C154 440.2 154.6 440.7 155.7 440.8C157.2 440.9 158.9 441 160.3 441.6C161 441.8 161.4 442.9 161.8 443.6C161 444 160.4 444.8 159.6 444.8C158.3 444.9 157.1 444.6 155.7 444.4C154.5 444.2 153.9 444.5 153.9 445.8C153.9 448.4 153.9 450.8 154 453.4C154 454 154.8 454.8 155.3 455C157 455.7 158.7 455.9 160.4 456.6C161.2 456.9 162.3 458 162.3 458.7C162.2 460.1 160.9 460.1 159.5 459.8C157.3 459.1 155.1 458.5 152.8 457.9C151.1 457.5 150.4 456.5 150.4 454.7V431C150.4 429.4 151.1 428.4 152.7 428.2C154.4 427.9 156.1 427.8 157.9 427.6C159 427.5 160.3 427.2 161.3 427.5C162.3 427.6 163 428.5 163.9 429.1Z" fill="black"/>
</g>
<g id="Vector_82_2">
<path id="Vector_94" fill-rule="evenodd" clip-rule="evenodd" d="M187.3 466.8C185.1 466.8 185.6 464.7 185.6 463.2V443.4C185.5 443.4 185.5 443.4 185.5 443.4V423.8C185.5 423.1 185.4 422.4 185.6 421.8C185.9 421.1 186.7 420.4 187.3 420.4C187.9 420.4 188.6 421.2 189 421.8C189.2 422.1 189.1 422.8 189.1 423.4C189.1 436.7 189.2 449.9 189.2 463.3C189.1 464.7 189.6 466.8 187.3 466.8Z" fill="black"/>
</g>
<g id="Vector_83_2">
<path id="Vector_95" fill-rule="evenodd" clip-rule="evenodd" d="M366.9 434.3C364.6 430.2 362.2 426.3 359.6 422.3C359.2 421.7 358.1 421.3 357.5 421.4C356.9 421.5 356.2 422.3 356 423C355.6 424.4 355.3 426 355 427.6C354.1 432.1 353.3 436.5 352.4 441.3C352.7 441.6 353.3 442.5 353.7 442.6C354.1 442.7 355.1 442 355.4 441.6C355.8 440.3 356.2 438.9 356.3 437.6C356.5 434.3 359.4 433.9 361.5 433.1C363.3 432.4 363.2 434.7 364 435.4C364.2 435.6 364.3 436.1 364.6 436.1C365.3 436.2 366.3 436.7 366.6 436.3C366.9 435.9 367.3 434.8 366.9 434.3ZM357.8 431.3C358.1 429.6 358.4 428.5 358.5 427.3C358.6 427.3 358.8 427.2 358.9 427.2C359.5 428.1 360 428.9 360.7 430C359.7 430.4 359 430.7 357.8 431.3Z" fill="black"/>
<path id="Vector_96" fill-rule="evenodd" clip-rule="evenodd" d="M360.7 430C359.7 430.4 359 430.8 357.8 431.3C358.1 429.6 358.4 428.5 358.5 427.3C358.6 427.3 358.8 427.2 358.9 427.2C359.4 428.1 360 428.8 360.7 430Z" fill="#098407"/>
</g>
<g id="Vector_84_2">
<path id="Vector_97" fill-rule="evenodd" clip-rule="evenodd" d="M130.9 427.3C130.2 427.1 129.6 427 129.2 427C127.3 426.9 126 427.1 126 428.9C126 433.9 126 438.8 126.1 443.8C126.1 444.5 127.1 445 127.6 445.7C128 445 128.9 444.5 129 443.7C129.2 442.5 129.1 441 129 439.7C128.8 437.9 129.2 436.9 131.2 436.4C133.5 435.8 134.8 433.7 134.7 431.7C134.8 429.6 133.1 427.8 130.9 427.3ZM130 434C129.8 433.9 129.6 433.8 129.3 433.7V430.1C129.5 430 129.6 429.8 129.9 429.7C130.6 430.5 131.7 431.1 131.7 431.8C131.7 432.5 130.7 433.2 130 434Z" fill="black"/>
<path id="Vector_98" fill-rule="evenodd" clip-rule="evenodd" d="M131.7 431.7C131.7 432.5 130.7 433.1 130 433.9C129.8 433.8 129.6 433.7 129.3 433.6V430C129.5 429.9 129.6 429.7 129.9 429.6C130.6 430.4 131.7 431.1 131.7 431.7Z" fill="#098407"/>
</g>
<g id="Vector_85_2">
<path id="Vector_99" fill-rule="evenodd" clip-rule="evenodd" d="M143.6 439.5V448.6C143.6 450 143.3 451.4 141.6 451.4C139.9 451.4 139.8 450 139.8 448.6C139.8 442.4 139.7 436.2 139.7 430C139.7 428.7 139.8 427.2 141.6 427.2C143.1 427.2 143.4 428.6 143.4 429.9C143.6 433.3 143.6 436.3 143.6 439.5Z" fill="black"/>
</g>
<g id="Vector_86_2">
<path id="Vector_100" fill-rule="evenodd" clip-rule="evenodd" d="M248.9 192.4C243.8 192.4 240 191 236.8 187.9C235.8 187 234.9 186 236 184.8C237.1 183.5 238.2 184.5 239.2 185.2C245.7 190.8 254.3 189.7 259.2 182.7C260 181.7 260.7 180.5 262.2 181.4C263.6 182.4 263 183.6 262.2 184.7C258.8 189.7 254.2 192.1 248.9 192.4Z" fill="black"/>
</g>
<g id="Vector_87_2">
<path id="Vector_101" fill-rule="evenodd" clip-rule="evenodd" d="M254.8 170.7C254 169.6 253.3 168.8 253.4 168.2C253.5 167.5 254.4 167.1 254.9 166.5C255.5 167.1 256.3 167.6 256.4 168.3C256.4 169 255.5 169.6 254.8 170.7Z" fill="black"/>
</g>
<g id="Vector_88_2">
<path id="Vector_102" fill-rule="evenodd" clip-rule="evenodd" d="M240.4 166.9C241.2 168 241.9 168.8 241.8 169.4C241.7 170.1 240.7 170.8 240.1 170.8C239.5 170.8 238.7 169.8 238.6 169.2C238.8 168.6 239.6 168.1 240.4 166.9Z" fill="black"/>
</g>
</g>
</g>
</g>
</svg>
